<svg xml:space="preserve" style="enable-background:new 0 0 800 600;" viewBox="0 0 800 600" y="0px" x="0px" xmlns:xlink="http://www.w3.org/1999/xlink" xmlns="http://www.w3.org/2000/svg" id="图层_1" version="1.1">
<style type="text/css">
	.st0{fill:#FFFFFF;}
	.st1{fill:none;stroke:#FFFFFF;stroke-width:1.8;stroke-miterlimit:10;}
	.st2{fill:none;}
	.st3{fill:#34B16B;}
	.st4{fill:none;stroke:#000000;stroke-width:1.8;stroke-miterlimit:10;}
	.st5{clip-path:url(#SVGID_2_);}
	.st6{fill:#040000;}
	.st7{clip-path:url(#SVGID_4_);}
	.st8{fill:none;stroke:#000000;stroke-width:1.8;stroke-linecap:round;stroke-linejoin:round;stroke-miterlimit:10;}
	.st9{fill:#34B16B;stroke:#34B16B;stroke-width:0.3899;stroke-miterlimit:10;}
	.st10{fill:#34B16B;stroke:#34B16B;stroke-width:0.6633;stroke-miterlimit:10;}
	.st11{fill:#34B16B;stroke:#34B16B;stroke-width:0.5489;stroke-miterlimit:10;}
	.st12{fill:#34B16B;stroke:#34B16B;stroke-width:0.7222;stroke-miterlimit:10;}
	.st13{fill:#34B16B;stroke:#34B16B;stroke-width:0.5742;stroke-miterlimit:10;}
	.st14{fill:#34B16B;stroke:#34B16B;stroke-width:1.1505;stroke-miterlimit:10;}
	.st15{clip-path:url(#SVGID_6_);}
	.st16{clip-path:url(#SVGID_8_);}
	.st17{clip-path:url(#SVGID_10_);}
	.st18{clip-path:url(#SVGID_12_);}
	.st19{clip-path:url(#SVGID_14_);}
	.st20{fill:none;stroke:#34B16B;stroke-width:1.8;stroke-miterlimit:10;}
	.st21{clip-path:url(#SVGID_16_);fill:none;stroke:#34B16B;stroke-width:0.6412;stroke-miterlimit:10;}
	.st22{fill:none;stroke:#000000;stroke-linecap:round;stroke-linejoin:round;stroke-miterlimit:10;}
	.st23{fill:#34B16B;stroke:#34B16B;stroke-linecap:round;stroke-linejoin:round;stroke-miterlimit:10;}
	.st24{fill:none;stroke:#000000;stroke-width:0.6455;stroke-linecap:round;stroke-linejoin:round;stroke-miterlimit:10;}
	.st25{clip-path:url(#SVGID_18_);}
	.st26{fill:#318C56;}
	.st27{opacity:0.67;fill:#37A867;}
	.st28{fill:#37A867;}
	.st29{clip-path:url(#SVGID_20_);fill:#040000;}
	.st30{fill:none;stroke:#318C56;stroke-miterlimit:10;}
	.st31{clip-path:url(#SVGID_22_);}
	.st32{clip-path:url(#SVGID_24_);}
	.st33{fill:#42B36F;}
	.st34{clip-path:url(#SVGID_26_);fill:#FFFFFF;}
	.st35{clip-path:url(#SVGID_28_);fill:#FFFFFF;}
	.st36{fill:#6CB988;}
	.st37{clip-path:url(#SVGID_30_);}
	.st38{clip-path:url(#SVGID_32_);fill:#34B16B;}
	.st39{fill:#FFFFFF;stroke:#000000;stroke-width:1.7686;stroke-miterlimit:10;}
	.st40{fill:#FFFFFF;stroke:#000000;stroke-width:1.8;stroke-miterlimit:10;}
	.st41{stroke:#000000;stroke-width:1.8;stroke-miterlimit:10;}
	.st42{clip-path:url(#SVGID_34_);}
	.st43{fill:#34B16B;stroke:#34B16B;stroke-width:0.4604;stroke-miterlimit:10;}
	.st44{fill:#34B16B;stroke:#34B16B;stroke-width:0.7833;stroke-miterlimit:10;}
	.st45{fill:#34B16B;stroke:#34B16B;stroke-width:0.6482;stroke-miterlimit:10;}
	.st46{fill:#34B16B;stroke:#34B16B;stroke-width:0.8528;stroke-miterlimit:10;}
	.st47{fill:#34B16B;stroke:#34B16B;stroke-width:0.6781;stroke-miterlimit:10;}
	.st48{fill:#34B16B;stroke:#34B16B;stroke-width:1.3586;stroke-miterlimit:10;}
	.st49{fill:#34B16B;stroke:#34B16B;stroke-width:1.8;stroke-linecap:round;stroke-linejoin:round;stroke-miterlimit:10;}
	.st50{fill:none;stroke:#FFFFFF;stroke-width:1.8;stroke-linecap:round;stroke-linejoin:round;stroke-miterlimit:10;}
	.st51{fill:none;stroke:#FFFFFF;stroke-linecap:round;stroke-linejoin:round;stroke-miterlimit:10;}
	.st52{stroke:#000000;stroke-width:1.9321;stroke-linecap:round;stroke-linejoin:round;stroke-miterlimit:10;}
	.st53{fill:none;stroke:#FFFFFF;stroke-width:5.124;stroke-linecap:round;stroke-linejoin:round;stroke-miterlimit:10;}
	.st54{fill:none;stroke:#040000;stroke-width:1.8;stroke-linecap:round;stroke-linejoin:round;stroke-miterlimit:10;}
	.st55{fill:none;stroke:#FFFFFF;stroke-width:11.4876;stroke-linecap:round;stroke-linejoin:round;stroke-miterlimit:10;}
	.st56{stroke:#000000;stroke-width:1.8158;stroke-linecap:round;stroke-linejoin:round;stroke-miterlimit:10;}
	.st57{clip-path:url(#SVGID_36_);}
	.st58{fill:#FFFFFF;stroke:#FFFFFF;stroke-width:0.2961;stroke-linecap:round;stroke-linejoin:round;stroke-miterlimit:10;}
	.st59{fill:none;stroke:#000000;stroke-width:2.1144;stroke-linecap:round;stroke-linejoin:round;stroke-miterlimit:10;}
	.st60{clip-path:url(#SVGID_38_);}
	.st61{clip-path:url(#SVGID_40_);}
	.st62{clip-path:url(#SVGID_42_);}
	.st63{fill:#221714;}
	.st64{fill:#358C59;}
	.st65{fill:#4FB377;}
	.st66{clip-path:url(#SVGID_44_);}
	.st67{clip-path:url(#SVGID_46_);}
	.st68{clip-path:url(#SVGID_48_);fill:#FFFFFF;}
	.st69{clip-path:url(#SVGID_50_);fill:#FFFFFF;}
</style>
<g>
	<g>
		<polygon points="471.19,175.22 471.19,167.47 472.92,156.82 466.36,156.35 459.48,174.74 461.04,175.22" class="st0"></polygon>
		<path d="M471.69,175.72l-10.8-0.02l-2.06-0.64l7.19-19.24l7.48,0.53l-1.81,11.19L471.69,175.72z M461.11,174.72h9.58v-7.25
			l1.65-10.19l-5.64-0.4l-6.56,17.54L461.11,174.72z"></path>
	</g>
	<g>
		<path d="M261.65,92.39c-0.07,0-0.14-0.01-0.21-0.05l-13.09-6.12c-0.25-0.12-0.36-0.42-0.24-0.67c0.12-0.25,0.42-0.36,0.67-0.24
			l13.09,6.12c0.25,0.12,0.36,0.42,0.24,0.67C262.02,92.28,261.84,92.39,261.65,92.39z"></path>
		<path d="M265.16,177.34c-0.21,0-0.41-0.13-0.48-0.35c-0.08-0.26,0.06-0.54,0.32-0.63l23.79-7.68c0.26-0.08,0.54,0.06,0.63,0.32
			s-0.06,0.54-0.32,0.63l-23.79,7.68C265.26,177.33,265.21,177.34,265.16,177.34z"></path>
		<path d="M191.58,130.97c-0.08,0-0.16-0.02-0.23-0.06c-0.24-0.13-0.34-0.43-0.21-0.68l5.46-10.33c0.13-0.25,0.43-0.34,0.68-0.21
			c0.24,0.13,0.34,0.43,0.21,0.68l-5.46,10.33C191.93,130.87,191.75,130.97,191.58,130.97z"></path>
		<path d="M174.2,255.8c-0.02,0-0.03,0-0.05,0c-0.28-0.03-0.48-0.27-0.45-0.55l1.14-11.6c0.03-0.28,0.28-0.46,0.55-0.45
			c0.28,0.03,0.48,0.27,0.45,0.55l-1.14,11.6C174.67,255.61,174.45,255.8,174.2,255.8z"></path>
		<path d="M195.74,398.05c-0.25,0-0.47-0.19-0.5-0.45c-0.03-0.27,0.18-0.52,0.45-0.54l10.2-0.96c0.26-0.02,0.52,0.17,0.54,0.45
			c0.03,0.27-0.18,0.52-0.45,0.54l-10.2,0.96C195.78,398.05,195.76,398.05,195.74,398.05z"></path>
		<path d="M235.89,508.93c-0.06,0-0.13-0.01-0.19-0.04c-0.26-0.1-0.38-0.4-0.27-0.65l5-12.22c0.1-0.26,0.39-0.38,0.65-0.27
			c0.26,0.1,0.38,0.4,0.27,0.65l-5,12.22C236.28,508.82,236.09,508.93,235.89,508.93z"></path>
		<path d="M187.54,479.58c-0.17,0-0.34-0.09-0.43-0.25c-0.14-0.24-0.06-0.54,0.18-0.68l12.02-7.03c0.24-0.14,0.54-0.06,0.68,0.18
			c0.14,0.24,0.06,0.54-0.18,0.68l-12.02,7.03C187.71,479.56,187.62,479.58,187.54,479.58z"></path>
		<path d="M332.05,504.17c-0.24,0-0.46-0.18-0.49-0.43l-2.3-15.33c-0.04-0.27,0.15-0.53,0.42-0.57c0.27-0.04,0.53,0.15,0.57,0.42
			l2.3,15.33c0.04,0.27-0.15,0.53-0.42,0.57C332.1,504.17,332.07,504.17,332.05,504.17z"></path>
		<path d="M520.21,411.68c-0.23,0-0.44-0.17-0.49-0.41c-0.05-0.27,0.13-0.53,0.4-0.59l12.42-2.38c0.27-0.05,0.53,0.12,0.59,0.4
			c0.05,0.27-0.13,0.53-0.4,0.59l-12.42,2.38C520.27,411.68,520.24,411.68,520.21,411.68z"></path>
		<path d="M554.28,305.44c-0.11,0-0.22-0.04-0.32-0.11l-10.56-8.65c-0.21-0.17-0.25-0.49-0.07-0.7c0.17-0.21,0.49-0.25,0.7-0.07
			l10.56,8.65c0.21,0.17,0.25,0.49,0.07,0.7C554.57,305.38,554.42,305.44,554.28,305.44z"></path>
		<path d="M607.5,255.64c-0.13,0-0.26-0.05-0.36-0.15c-0.19-0.2-0.19-0.51,0.01-0.71l10.07-9.92c0.19-0.19,0.51-0.19,0.71,0.01
			c0.19,0.2,0.19,0.51-0.01,0.71l-10.07,9.92C607.75,255.59,607.63,255.64,607.5,255.64z"></path>
		<path d="M260.83,252.66c-0.04,0-0.08,0-0.13-0.02c-0.27-0.07-0.43-0.34-0.36-0.61l4.26-16.13c0.07-0.27,0.34-0.43,0.61-0.36
			c0.27,0.07,0.43,0.34,0.36,0.61l-4.26,16.13C261.25,252.51,261.05,252.66,260.83,252.66z"></path>
		<path d="M461.04,175.72c-0.06,0-0.12-0.01-0.18-0.03c-0.26-0.1-0.39-0.39-0.29-0.65l7.52-19.84c0.1-0.26,0.38-0.39,0.65-0.29
			c0.26,0.1,0.39,0.39,0.29,0.65l-7.52,19.84C461.43,175.6,461.24,175.72,461.04,175.72z"></path>
		<path d="M498.58,96.98c-0.16,0-0.32-0.08-0.42-0.23l-6.85-10.49c-0.15-0.23-0.09-0.54,0.15-0.69c0.23-0.15,0.54-0.08,0.69,0.15
			L499,96.21c0.15,0.23,0.09,0.54-0.15,0.69C498.77,96.96,498.67,96.98,498.58,96.98z"></path>
		<path d="M614.23,436.79C614.23,436.79,614.22,436.79,614.23,436.79c-0.28,0-0.5-0.23-0.5-0.51l0.22-13.52
			c0-0.27,0.23-0.49,0.5-0.49c0,0,0.01,0,0.01,0c0.28,0,0.5,0.23,0.49,0.51l-0.22,13.52C614.72,436.57,614.5,436.79,614.23,436.79z"></path>
		<g>
			
				<rect height="10.86" width="10.86" class="st3" transform="matrix(0.9803 -0.1974 0.1974 0.9803 -64.4415 46.6356)" y="341.17" x="196.31"></rect>
			<path d="M197.48,353.49c-0.23,0-0.44-0.16-0.49-0.4l-2.14-10.64c-0.03-0.13,0-0.26,0.07-0.38
				c0.07-0.11,0.19-0.19,0.32-0.21l10.64-2.14c0.26-0.06,0.53,0.12,0.59,0.39l2.14,10.64c0.03,0.13,0,0.26-0.07,0.38
				c-0.07,0.11-0.19,0.19-0.32,0.21l-10.64,2.14C197.55,353.49,197.52,353.49,197.48,353.49z M195.93,342.74l1.95,9.66l9.66-1.95
				l-1.95-9.66L195.93,342.74z" class="st3"></path>
		</g>
		<g>
			
				<rect height="10.64" width="10.64" class="st3" transform="matrix(0.9902 0.1393 -0.1393 0.9902 34.6009 -74.446)" y="204.58" x="543.68"></rect>
			<path d="M553.53,216.41c-0.02,0-0.05,0-0.07,0l-10.54-1.48c-0.27-0.04-0.46-0.29-0.43-0.56l1.48-10.54
				c0.04-0.27,0.3-0.46,0.56-0.43l10.54,1.48c0.27,0.04,0.46,0.29,0.43,0.56l-1.48,10.54C553.99,216.23,553.77,216.41,553.53,216.41
				z M543.56,214l9.55,1.34l1.34-9.55l-9.55-1.34L543.56,214z" class="st3"></path>
		</g>
		<path d="M607.75,355.39c-0.09,0-0.18-0.02-0.26-0.07l-14.08-8.61c-0.24-0.14-0.31-0.45-0.17-0.69l8.61-14.08
			c0.14-0.24,0.45-0.31,0.69-0.17l14.08,8.61c0.24,0.14,0.31,0.45,0.17,0.69l-8.61,14.08C608.09,355.3,607.92,355.39,607.75,355.39z
			 M594.36,346.11l13.22,8.09l8.09-13.22l-13.22-8.09L594.36,346.11z"></path>
		<g>
			<circle r="6.73" cy="167.59" cx="171.94" class="st3"></circle>
			<path d="M171.94,174.82c-3.17,0-6.08-2.1-6.97-5.29c-1.07-3.84,1.19-7.83,5.03-8.9c3.84-1.07,7.84,1.19,8.91,5.03
				l0,0c1.07,3.84-1.19,7.84-5.03,8.91C173.23,174.73,172.58,174.82,171.94,174.82z M171.93,161.35c-0.55,0-1.11,0.07-1.67,0.23
				c-1.6,0.45-2.94,1.49-3.75,2.94c-0.82,1.45-1.02,3.13-0.58,4.73c0.92,3.31,4.36,5.25,7.67,4.33c3.31-0.92,5.25-4.36,4.33-7.67
				l0,0C177.17,163.16,174.66,161.35,171.93,161.35z" class="st3"></path>
		</g>
		<path d="M253.76,467.63c-1.7,0-3.35-0.56-4.71-1.62c-1.62-1.26-2.66-3.08-2.91-5.12c-0.25-2.04,0.3-4.06,1.56-5.68
			s3.08-2.66,5.12-2.91c2.04-0.25,4.06,0.3,5.68,1.56c1.62,1.26,2.66,3.08,2.91,5.12c0.52,4.21-2.47,8.06-6.69,8.59
			C254.4,467.61,254.08,467.63,253.76,467.63z M253.78,453.24c-0.28,0-0.55,0.02-0.83,0.05c-3.66,0.46-6.27,3.81-5.82,7.47
			c0.22,1.77,1.12,3.36,2.53,4.46s3.17,1.58,4.94,1.36c3.66-0.46,6.27-3.81,5.82-7.47C259.99,455.72,257.1,453.24,253.78,453.24z"></path>
		<g>
			<circle r="3.47" cy="354.88" cx="362.65" class="st3"></circle>
			<path d="M362.64,358.86c-0.72,0-1.44-0.2-2.07-0.59c-0.9-0.55-1.54-1.43-1.79-2.46s-0.08-2.1,0.48-3
				c0.55-0.9,1.43-1.54,2.46-1.79c1.03-0.25,2.1-0.08,3,0.48s1.54,1.43,1.79,2.46c0.25,1.03,0.08,2.1-0.48,3
				c-0.55,0.9-1.43,1.54-2.46,1.79C363.26,358.82,362.95,358.86,362.64,358.86z M362.65,351.91c-0.23,0-0.47,0.03-0.7,0.08
				c-0.77,0.19-1.43,0.66-1.84,1.34c-0.42,0.68-0.54,1.47-0.36,2.25c0.19,0.77,0.66,1.43,1.34,1.84s1.48,0.54,2.25,0.36
				c0.77-0.19,1.43-0.66,1.84-1.34l0,0c0.42-0.68,0.54-1.48,0.36-2.25c-0.19-0.77-0.66-1.43-1.34-1.84
				C363.73,352.06,363.19,351.91,362.65,351.91z" class="st3"></path>
		</g>
		<g>
			<circle r="6.08" cy="155.51" cx="620.42" class="st3"></circle>
			<path d="M620.42,162.09c-3.11,0-5.88-2.21-6.47-5.38c-0.32-1.73,0.05-3.48,1.04-4.93c0.99-1.45,2.49-2.42,4.22-2.74
				c3.55-0.66,7.01,1.7,7.67,5.27c0,0,0,0,0,0c0.66,3.57-1.7,7.01-5.27,7.67C621.22,162.05,620.81,162.09,620.42,162.09z
				 M620.42,149.93c-0.34,0-0.68,0.03-1.02,0.09c-1.47,0.27-2.74,1.1-3.58,2.33s-1.16,2.71-0.89,4.18c0.56,3.02,3.49,5.02,6.5,4.47
				c3.03-0.56,5.03-3.48,4.47-6.5l0,0C625.41,151.81,623.06,149.93,620.42,149.93z" class="st3"></path>
		</g>
		<path d="M311.77,351.6c-0.27,0-0.5-0.22-0.5-0.49c0-0.1-0.24-10.38-7.8-16.18c-4.03-3.09-8.58-1.74-13.85-0.17
			c-4.49,1.33-9.57,2.85-14.94,1.54c-11.5-2.81-16.97-19.65-17.2-20.37c-0.08-0.26,0.06-0.54,0.33-0.63
			c0.27-0.08,0.54,0.06,0.63,0.33c0.05,0.17,5.53,17.02,16.48,19.7c5.12,1.25,9.85-0.16,14.42-1.52c5.3-1.58,10.31-3.07,14.74,0.33
			c7.96,6.11,8.19,16.52,8.19,16.96C312.28,351.37,312.06,351.6,311.77,351.6C311.78,351.6,311.77,351.6,311.77,351.6z"></path>
		<path d="M564.25,105.25c-10.48,0-20.71-10.3-21.19-10.78c-0.19-0.2-0.19-0.51,0.01-0.71c0.2-0.19,0.52-0.19,0.71,0.01
			c0.13,0.13,12.62,12.71,23.6,10.13c5.13-1.19,8.71-4.59,12.18-7.87c4.02-3.8,7.81-7.39,13.3-6.36
			c9.86,1.86,14.76,11.05,14.97,11.44c0.13,0.24,0.03,0.55-0.21,0.67c-0.24,0.13-0.55,0.03-0.67-0.21
			c-0.05-0.09-4.9-9.15-14.27-10.92c-4.98-0.93-8.44,2.32-12.43,6.1c-3.4,3.22-7.25,6.86-12.64,8.12
			C566.48,105.14,565.36,105.25,564.25,105.25z"></path>
		<g>
			<circle r="5.3" cy="461.82" cx="559.51" class="st3"></circle>
			<path d="M559.51,467.63c-0.64,0-1.28-0.11-1.92-0.33c-3.02-1.06-4.61-4.38-3.55-7.4c0.51-1.46,1.57-2.64,2.96-3.31
				c1.4-0.67,2.97-0.76,4.44-0.24c3.02,1.06,4.61,4.38,3.55,7.4l0,0C564.15,466.13,561.9,467.63,559.51,467.63z M559.51,457.02
				c-0.71,0-1.42,0.16-2.08,0.48c-1.16,0.56-2.03,1.53-2.45,2.74c-0.88,2.5,0.44,5.24,2.94,6.12c2.49,0.87,5.24-0.44,6.12-2.94l0,0
				c0.88-2.5-0.44-5.25-2.94-6.12C560.58,457.11,560.05,457.02,559.51,457.02z M564.52,463.58L564.52,463.58L564.52,463.58z" class="st3"></path>
		</g>
		<path d="M615.89,513c-0.14,0-0.29-0.06-0.39-0.18c-0.17-0.21-0.14-0.53,0.07-0.7l9.05-7.39c0.21-0.17,0.53-0.14,0.7,0.07
			c0.17,0.21,0.14,0.53-0.07,0.7l-9.05,7.39C616.12,512.96,616.01,513,615.89,513z"></path>
		<path d="M450.48,518.49c-9.93,0-17.75-6.91-18.12-7.23c-0.25-0.22-0.27-0.61-0.05-0.86c0.22-0.25,0.61-0.27,0.86-0.05
			c0.1,0.09,9.77,8.6,20.78,6.62c5.84-1.05,8-6.36,10.5-12.5c2.13-5.24,4.55-11.18,9.81-15c4.68-3.39,11.66-4.2,20.2-2.32
			c6.39,1.41,11.49,3.84,11.54,3.86c0.3,0.15,0.43,0.51,0.29,0.81c-0.15,0.3-0.51,0.43-0.81,0.29c-0.2-0.1-19.84-9.39-30.5-1.66
			c-4.98,3.61-7.22,9.13-9.4,14.47c-2.52,6.21-4.91,12.07-11.41,13.24C452.91,518.39,451.68,518.49,450.48,518.49z"></path>
		<path d="M320.94,418.73c-0.06,0-0.12-0.01-0.17-0.03c-0.26-0.1-0.39-0.38-0.29-0.64l5.8-15.64c0.1-0.26,0.38-0.39,0.64-0.29
			s0.39,0.38,0.29,0.64l-5.8,15.64C321.33,418.6,321.14,418.73,320.94,418.73z"></path>
	</g>
	<g>
		
			<rect height="136.64" width="198.99" class="st3" transform="matrix(0.3512 -0.9363 0.9363 0.3512 57.1794 483.8722)" y="132.36" x="278.24"></rect>
		<path d="M407.16,318.72l-129.23-48.47L348.3,82.64l129.23,48.47L407.16,318.72z M279.71,269.44l126.64,47.5
			l69.4-185.02l-126.64-47.5L279.71,269.44z" class="st3"></path>
	</g>
	<path d="M312.75,245.14c-0.51,0-1.03-0.09-1.53-0.27c-2.34-0.85-3.55-3.43-2.7-5.76l47.68-131.76
		c0.85-2.34,3.42-3.54,5.76-2.7c2.34,0.85,3.55,3.43,2.7,5.76l-47.68,131.76C316.32,244,314.59,245.14,312.75,245.14z" class="st0"></path>
	<path d="M366.87,267.02c-0.49,0-0.99-0.08-1.48-0.25c-2.35-0.81-3.59-3.38-2.78-5.73l37.66-108.53
		c0.81-2.35,3.37-3.59,5.73-2.78c2.35,0.81,3.59,3.38,2.78,5.73L371.12,264C370.47,265.86,368.73,267.02,366.87,267.02z" class="st0"></path>
	<path d="M337.55,255.45c-0.51,0-1.03-0.09-1.53-0.27c-2.34-0.85-3.55-3.43-2.7-5.76l32.87-90.83
		c0.85-2.34,3.43-3.55,5.76-2.7c2.34,0.85,3.55,3.43,2.7,5.76l-32.87,90.83C341.12,254.31,339.39,255.45,337.55,255.45z" class="st0"></path>
	<g>
		<path d="M427.99,450.12v21.63h-49.86c0,0-0.22-14.51,15.46-18.44c0,0,6.28-0.87,12.29,3.48l2.07-9.88L427.99,450.12z" class="st3"></path>
		<path d="M427.99,472.44h-49.87c-0.38,0-0.69-0.3-0.69-0.68c0-0.15-0.04-15.11,15.99-19.12c0.32-0.05,6.11-0.8,11.99,3
			l1.86-8.87c0.07-0.36,0.42-0.61,0.79-0.54l20.05,3.21c0.34,0.05,0.58,0.34,0.58,0.68v21.63
			C428.68,472.13,428.37,472.44,427.99,472.44z M378.84,471.05h48.46v-20.34l-18.81-3.01l-1.93,9.24c-0.05,0.23-0.21,0.42-0.43,0.5
			s-0.47,0.05-0.66-0.09c-5.7-4.13-11.73-3.37-11.79-3.36C380.54,457.29,379.01,468.18,378.84,471.05z" class="st3"></path>
	</g>
	<g>
		<path d="M473.04,450.75v20.99h49.86c0,0,0.22-14.09-15.46-17.89c0,0-6.28-0.85-12.29,3.38
			c-0.65-3.03-1.31-6.07-1.96-9.1C486.48,449.01,479.76,449.88,473.04,450.75z" class="st3"></path>
		<path d="M522.91,472.43h-49.87c-0.38,0-0.68-0.31-0.68-0.68v-20.99c0-0.34,0.25-0.63,0.59-0.68l20.15-2.62
			c0.35-0.04,0.68,0.19,0.75,0.53l1.75,8.12c5.88-3.7,11.67-2.97,11.92-2.94c8.43,2.04,12.33,6.98,14.14,10.76
			c1.95,4.09,1.92,7.67,1.92,7.82C523.59,472.13,523.28,472.43,522.91,472.43z M473.73,471.06h48.48
			c-0.18-2.8-1.72-13.35-14.92-16.55l0,0c-0.04,0-6.05-0.72-11.73,3.28c-0.19,0.13-0.43,0.16-0.64,0.08
			c-0.21-0.08-0.37-0.27-0.42-0.49l-1.83-8.48l-18.94,2.46V471.06z" class="st3"></path>
	</g>
	<g>
		<path d="M472.92,144.1c0,0-6.36-6.51-17.39-3.71c-11.04,2.8-8.44,5.4-8.44,5.4s2.26,4.25,13.12,4.95l0.35,6.33
			c0,0,3.33-2.39,4.83-2.19c1.5,0.2,2.42,0.79,2.42,0.79L472.92,144.1z" class="st0"></path>
		<path d="M460.11,158.01l-0.38-6.8c-10.07-0.75-12.71-4.56-13.05-5.12c-0.22-0.26-0.48-0.8-0.29-1.48
			c0.47-1.72,3.51-3.3,9.02-4.69c11.18-2.84,17.81,3.78,17.87,3.84l0.24,0.24l-5.48,12.41l-0.49-0.31c-0.01,0-0.86-0.53-2.22-0.72
			c-0.95-0.12-3.25,1.22-4.47,2.1L460.11,158.01z M460.89,140.21c-1.6,0-3.35,0.2-5.24,0.68c-6.93,1.76-8.11,3.36-8.29,3.97
			c-0.11,0.36,0.07,0.58,0.09,0.6l0.08,0.11c0.02,0.04,2.33,4.02,12.71,4.68l0.44,0.03l0.33,5.89c1.12-0.73,3.21-1.95,4.45-1.78
			c0.93,0.12,1.66,0.39,2.11,0.6l4.75-10.75C471.31,143.35,467.29,140.21,460.89,140.21z" class="st0"></path>
	</g>
	<g>
		<path d="M468.17,155.67c0,0-3.49-2.26-7.6,2.98v-7.91c0,0-10.68,0.72-14.07-5.85c-1.18,0.9-2.58,2.2-3.83,4.01
			c-3.23,4.69-3.25,9.67-3.14,11.69c0.07,1.55,0.44,4.97,2.87,8.12c4.86,6.28,13.32,5.47,13.91,5.41c-0.09,0.57-0.18,1.13-0.26,1.7
			h-8.42v5.03c0,0-20.13,0.31-50.02,43.96l-24.75-32.25l-17.46,14.79l36.77,42.83c0,0,6.57,10.17,19.62-1.75
			c0,0,6.16-5.03,13.87-17.56l-2.67,44.27l-1.03,19.82l71.7-5.55l0.72,12.22l27.01-4.52l-19.82-95.32c0,0-7.81-22.91-29.38-21.36
			v-4.62l-12.33,0.1L468.17,155.67z" class="st0"></path>
		<path d="M494.37,302.53c-0.2,0-0.4-0.07-0.56-0.2c-0.2-0.16-0.32-0.4-0.34-0.65l-0.67-11.31l-70.78,5.48
			c-0.25,0.02-0.51-0.07-0.7-0.25s-0.28-0.43-0.27-0.69l1.03-19.82l2.46-40.8c-6.79,10.37-11.95,14.64-12.19,14.83
			c-4.87,4.45-9.51,6.45-13.73,5.91c-4.47-0.58-6.84-3.82-7.18-4.31l-36.74-42.79c-0.16-0.18-0.23-0.42-0.21-0.66
			c0.02-0.24,0.13-0.46,0.32-0.62l17.46-14.79c0.19-0.16,0.43-0.24,0.68-0.21c0.25,0.03,0.47,0.15,0.62,0.35l24,31.27
			c26.32-38.04,44.93-42.69,49.16-43.25v-4.21c0-0.5,0.4-0.9,0.9-0.9h4.7c-3.19-0.4-7.59-1.71-10.64-5.66
			c-2.35-3.04-2.96-6.37-3.06-8.63c-0.14-2.57,0.11-7.6,3.3-12.24c1.1-1.59,2.45-3.01,4.02-4.21c0.21-0.16,0.48-0.22,0.74-0.16
			c0.26,0.06,0.48,0.23,0.6,0.47c3.08,5.96,13.11,5.38,13.21,5.37c0.25-0.01,0.49,0.07,0.67,0.24c0.18,0.17,0.29,0.41,0.29,0.66
			v5.62c3.9-3.49,7.15-1.46,7.19-1.44c0.36,0.24,0.51,0.7,0.34,1.1L461.2,175l10.97-0.09c0.23-0.04,0.47,0.09,0.64,0.26
			c0.17,0.17,0.27,0.4,0.27,0.64v3.67c8.71-0.34,16.51,3.27,22.57,10.48c4.7,5.6,6.68,11.31,6.76,11.55
			c0.01,0.04,0.02,0.07,0.03,0.11l19.82,95.32c0.05,0.24,0,0.49-0.14,0.69c-0.14,0.2-0.35,0.34-0.59,0.38l-27.01,4.52
			C494.46,302.53,494.41,302.53,494.37,302.53z M493.65,288.51c0.22,0,0.43,0.08,0.59,0.22c0.18,0.16,0.29,0.38,0.31,0.62
			l0.66,11.22l25.1-4.2l-19.62-94.34c-0.4-1.12-7.79-20.78-26.48-20.78c-0.64,0-1.29,0.02-1.96,0.07c-0.24,0.02-0.5-0.07-0.68-0.24
			c-0.18-0.17-0.29-0.41-0.29-0.66v-3.71l-11.42,0.1c-0.31,0.05-0.58-0.15-0.75-0.4s-0.2-0.57-0.09-0.85l7.97-19.39
			c-1.06-0.24-3.2-0.17-5.71,3.03c-0.24,0.3-0.64,0.42-1,0.29s-0.61-0.47-0.61-0.85v-6.98c-2.65,0.05-10.04-0.43-13.41-5.43
			c-1.09,0.94-2.04,2-2.84,3.16c-2.89,4.2-3.11,8.77-2.99,11.13c0.09,2.01,0.62,4.95,2.69,7.62c4.6,5.95,12.75,5.1,13.1,5.06
			c0.28-0.03,0.56,0.07,0.75,0.27s0.28,0.48,0.24,0.76l-0.26,1.7c-0.07,0.44-0.45,0.76-0.89,0.76h-7.52v4.13
			c0,0.49-0.39,0.89-0.89,0.9c-0.19,0-20.12,0.97-49.29,43.57c-0.16,0.24-0.43,0.38-0.72,0.39c-0.27,0.01-0.56-0.12-0.74-0.35
			l-24.18-31.5l-16.05,13.6l36.18,42.15c0.03,0.03,0.05,0.06,0.07,0.1c0.02,0.03,2.06,3.07,5.96,3.56c3.67,0.46,7.8-1.39,12.29-5.49
			c0.1-0.08,6.19-5.15,13.71-17.37c0.22-0.35,0.64-0.51,1.04-0.39c0.39,0.12,0.65,0.5,0.63,0.91l-2.67,44.27l-0.97,18.79l70.67-5.47
			C493.6,288.51,493.62,288.51,493.65,288.51z"></path>
	</g>
	<g>
		<polygon points="487.07,228.88 450.1,195.81 437.47,229.48" class="st3"></polygon>
		<path d="M436.46,230.18l13.34-35.57l39.06,34.93L436.46,230.18z M450.39,197l-11.92,31.78l46.81-0.57L450.39,197z" class="st3"></path>
	</g>
	<g>
		<polyline points="494,301.63 496.28,301.25 497.98,447.64 469.29,450.62 461.61,321.91 429.62,449.05 399.37,444.66 
			424.17,294.75 493.28,289.41 491.07,228.88" class="st0"></polyline>
		<path d="M469.29,451.52c-0.21,0-0.42-0.08-0.58-0.21c-0.19-0.16-0.3-0.39-0.32-0.63l-7.33-122.88L430.5,449.27
			c-0.11,0.45-0.55,0.74-1,0.67l-30.26-4.39c-0.24-0.03-0.46-0.16-0.6-0.36s-0.2-0.44-0.16-0.68l24.8-149.91
			c0.07-0.41,0.41-0.72,0.82-0.75l68.24-5.28l-2.17-59.67c-0.02-0.5,0.37-0.91,0.87-0.93c0.51,0.02,0.92,0.37,0.93,0.87l2.2,60.53
			c0.02,0.48-0.35,0.89-0.83,0.93l-68.4,5.29L400.41,443.9l28.54,4.14l31.78-126.35c0.11-0.43,0.52-0.7,0.96-0.68
			c0.44,0.04,0.79,0.4,0.81,0.84l7.63,127.77l26.94-2.8l-1.67-144.52l-1.25,0.21c-0.49,0.09-0.95-0.25-1.04-0.74
			s0.25-0.95,0.74-1.04l2.29-0.38c0.26-0.04,0.52,0.03,0.73,0.2c0.2,0.17,0.32,0.42,0.32,0.68l1.69,146.39
			c0,0.47-0.34,0.86-0.81,0.91l-28.69,2.98C469.35,451.52,469.32,451.52,469.29,451.52z"></path>
	</g>
	<g>
		<path d="M466.36,165.43c0,0,4.75,1.09,5.2,3.49c0,0,11.86-14.49,1.36-24.2l-4.32,11.53C468.59,156.24,477.45,160.17,466.36,165.43
			z"></path>
		<path d="M471.04,170.98l-0.36-1.89c-0.26-1.37-3.16-2.46-4.52-2.78l-2.52-0.58l2.34-1.11c3.29-1.56,5.09-3.17,5.07-4.54
			c-0.02-1.44-2.09-2.68-2.81-3l-0.78-0.34l5.09-13.58l0.98,0.91c11,10.17-1.15,25.28-1.27,25.43L471.04,170.98z M468.67,165.23
			c1.05,0.43,2.25,1.08,3.02,2c0.98-1.41,2.6-4.01,3.65-7.1c1.88-5.52,1.18-10.15-2.08-13.77l-3.55,9.47
			c1.12,0.66,3.1,2.12,3.13,4.23C472.87,161.88,471.5,163.59,468.67,165.23z"></path>
	</g>
	<g>
		<defs>
			<path d="M467.8,154.5c0,0-3.49-2.26-7.6,2.98v-7.91c0,0-10.68,0.72-14.07-5.85c0,0-7.91,4.42-6.88,18.8
				c0,0,1.13,10.27,16.43,10.79v1.34h-8.42v5.03c0,0-20.13,0.31-50.02,43.96l-24.75-32.25l-17.46,14.79L391.79,249
				c0,0,6.57,10.17,19.62-1.75c0,0,6.16-5.03,13.87-17.56l-2.67,44.27l-1.03,19.82l71.7-5.55l0.72,12.22l27.01-4.52l-19.82-95.32
				c0,0-7.81-22.91-29.38-21.37v-4.62l-12.33,0.1L467.8,154.5z" id="SVGID_43_"></path>
		</defs>
		<clipPath id="SVGID_2_">
			<use style="overflow:visible;" xlink:href="#SVGID_43_"></use>
		</clipPath>
		<g class="st5">
			<g>
				<circle r="2.32" cy="236.75" cx="399.45" class="st3"></circle>
				<path d="M399.45,239.97c-1.78,0-3.22-1.45-3.22-3.22c0-1.78,1.45-3.22,3.22-3.22c1.78,0,3.22,1.45,3.22,3.22
					C402.67,238.52,401.23,239.97,399.45,239.97z M399.45,235.32c-0.79,0-1.42,0.64-1.42,1.42s0.64,1.42,1.42,1.42
					s1.42-0.64,1.42-1.42S400.24,235.32,399.45,235.32z" class="st3"></path>
			</g>
			<g>
				<circle r="2.58" cy="216.87" cx="424.32" class="st3"></circle>
				<path d="M424.32,220.35c-1.92,0-3.48-1.56-3.48-3.48s1.56-3.48,3.48-3.48s3.48,1.56,3.48,3.48
					S426.23,220.35,424.32,220.35z M424.32,215.2c-0.92,0-1.68,0.75-1.68,1.68s0.75,1.68,1.68,1.68s1.68-0.75,1.68-1.68
					S425.24,215.2,424.32,215.2z" class="st3"></path>
			</g>
			<g>
				<circle r="1.19" cy="191.47" cx="437.58" class="st3"></circle>
				<path d="M437.58,193.56c-1.15,0-2.09-0.94-2.09-2.09s0.94-2.09,2.09-2.09s2.09,0.94,2.09,2.09
					S438.73,193.56,437.58,193.56z M437.58,191.18c-0.16,0-0.29,0.13-0.29,0.29c0,0.16,0.13,0.29,0.29,0.29s0.29-0.13,0.29-0.29
					C437.86,191.31,437.74,191.18,437.58,191.18z" class="st3"></path>
			</g>
			<g>
				<circle r="1.37" cy="203.75" cx="451.45" class="st3"></circle>
				<path d="M451.45,206.02c-1.25,0-2.27-1.02-2.27-2.27s1.02-2.27,2.27-2.27s2.27,1.02,2.27,2.27
					S452.7,206.02,451.45,206.02z M451.45,203.28c-0.26,0-0.47,0.21-0.47,0.47c0,0.26,0.21,0.47,0.47,0.47
					c0.26,0,0.47-0.21,0.47-0.47C451.92,203.49,451.71,203.28,451.45,203.28z" class="st3"></path>
			</g>
			<g>
				<circle r="1.98" cy="224.07" cx="450.61" class="st3"></circle>
				<path d="M450.61,226.95c-1.59,0-2.88-1.29-2.88-2.88s1.29-2.88,2.88-2.88s2.88,1.29,2.88,2.88
					S452.19,226.95,450.61,226.95z M450.61,223c-0.59,0-1.08,0.48-1.08,1.08s0.48,1.08,1.08,1.08c0.59,0,1.08-0.48,1.08-1.08
					S451.2,223,450.61,223z" class="st3"></path>
			</g>
			<g>
				<circle r="1.58" cy="238.32" cx="430.88" class="st3"></circle>
				<path d="M430.88,240.8c-1.37,0-2.48-1.11-2.48-2.48s1.11-2.48,2.48-2.48s2.48,1.11,2.48,2.48
					S432.25,240.8,430.88,240.8z M430.88,237.65c-0.37,0-0.67,0.3-0.67,0.67s0.3,0.67,0.67,0.67s0.67-0.3,0.67-0.67
					S431.26,237.65,430.88,237.65z" class="st3"></path>
			</g>
			<g>
				<circle r="1.53" cy="254.79" cx="421.82" class="st3"></circle>
				<path d="M421.82,257.22c-1.34,0-2.43-1.09-2.43-2.43c0-1.34,1.09-2.43,2.43-2.43s2.43,1.09,2.43,2.43
					C424.25,256.13,423.16,257.22,421.82,257.22z M421.82,254.16c-0.35,0-0.63,0.28-0.63,0.63s0.28,0.63,0.63,0.63
					s0.63-0.28,0.63-0.63S422.17,254.16,421.82,254.16z" class="st3"></path>
			</g>
			<g>
				<circle r="1.63" cy="288.99" cx="401.08" class="st3"></circle>
				<path d="M401.08,291.51c-1.39,0-2.53-1.13-2.53-2.53s1.14-2.53,2.53-2.53s2.53,1.14,2.53,2.53
					S402.47,291.51,401.08,291.51z M401.08,288.26c-0.4,0-0.73,0.33-0.73,0.73s0.33,0.73,0.73,0.73s0.73-0.33,0.73-0.73
					S401.48,288.26,401.08,288.26z" class="st3"></path>
			</g>
			<g>
				<circle r="2.5" cy="293.92" cx="434.95" class="st3"></circle>
				<path d="M434.96,297.31c-1.87,0-3.4-1.52-3.4-3.4c0-1.87,1.52-3.4,3.4-3.4c1.87,0,3.4,1.52,3.4,3.4
					C438.35,295.79,436.83,297.31,434.96,297.31z M434.96,292.32c-0.88,0-1.6,0.71-1.6,1.59s0.72,1.6,1.6,1.6s1.59-0.72,1.59-1.6
					S435.83,292.32,434.96,292.32z" class="st3"></path>
			</g>
			<g>
				<circle r="1.61" cy="318.47" cx="404.32" class="st3"></circle>
				<path d="M404.32,320.98c-1.38,0-2.51-1.13-2.51-2.51s1.13-2.51,2.51-2.51s2.51,1.13,2.51,2.51
					S405.7,320.98,404.32,320.98z M404.32,317.76c-0.39,0-0.71,0.32-0.71,0.71s0.32,0.71,0.71,0.71s0.71-0.32,0.71-0.71
					S404.71,317.76,404.32,317.76z" class="st3"></path>
			</g>
			<g>
				<circle r="1.85" cy="320.32" cx="435.99" class="st3"></circle>
				<path d="M435.99,323.07c-1.52,0-2.75-1.23-2.75-2.75s1.23-2.75,2.75-2.75s2.75,1.24,2.75,2.75
					S437.51,323.07,435.99,323.07z M435.99,319.37c-0.52,0-0.95,0.43-0.95,0.95c0,0.52,0.43,0.95,0.95,0.95s0.95-0.43,0.95-0.95
					C436.94,319.8,436.52,319.37,435.99,319.37z" class="st3"></path>
			</g>
			<g>
				<circle r="0.57" cy="302.44" cx="415.87" class="st3"></circle>
				<path d="M415.87,303.9c-0.81,0-1.47-0.66-1.47-1.47s0.66-1.47,1.47-1.47s1.47,0.66,1.47,1.47
					S416.68,303.9,415.87,303.9z M415.87,302.1c-0.18,0-0.33,0.15-0.33,0.33s0.15,0.33,0.33,0.33c0.18,0,0.33-0.15,0.33-0.33
					S416.05,302.1,415.87,302.1z" class="st3"></path>
			</g>
			<g>
				<circle r="1.47" cy="267.13" cx="438.92" class="st3"></circle>
				<path d="M438.92,269.49c-1.31,0-2.37-1.06-2.37-2.37s1.06-2.37,2.37-2.37s2.37,1.06,2.37,2.37
					S440.22,269.49,438.92,269.49z M438.92,266.56c-0.31,0-0.57,0.25-0.57,0.57s0.25,0.57,0.57,0.57s0.57-0.25,0.57-0.57
					S439.23,266.56,438.92,266.56z" class="st3"></path>
			</g>
			<g>
				<circle r="0.85" cy="287.27" cx="456.56" class="st3"></circle>
				<path d="M456.56,289.02c-0.96,0-1.75-0.78-1.75-1.75c0-0.96,0.78-1.75,1.75-1.75c0.96,0,1.75,0.78,1.75,1.75
					C458.31,288.24,457.52,289.02,456.56,289.02z M456.56,287.22l-0.05,0.05c0,0.03,0.02,0.06,0.05,0.06V287.22z" class="st3"></path>
			</g>
			<g>
				<circle r="1.53" cy="257.85" cx="462.56" class="st3"></circle>
				<path d="M462.56,260.28c-1.34,0-2.43-1.09-2.43-2.43s1.09-2.43,2.43-2.43s2.43,1.09,2.43,2.43
					S463.9,260.28,462.56,260.28z M462.56,257.22c-0.35,0-0.63,0.28-0.63,0.63c0,0.35,0.28,0.63,0.63,0.63s0.63-0.28,0.63-0.63
					C463.19,257.5,462.9,257.22,462.56,257.22z" class="st3"></path>
			</g>
			<g>
				<circle r="0.86" cy="266.52" cx="403.57" class="st3"></circle>
				<path d="M403.57,268.28c-0.97,0-1.76-0.79-1.76-1.76c0-0.97,0.79-1.76,1.76-1.76c0.97,0,1.76,0.79,1.76,1.76
					C405.34,267.49,404.54,268.28,403.57,268.28z M403.54,266.52c0,0.02,0.02,0.04,0.04,0.04L403.54,266.52z" class="st3"></path>
			</g>
			<g>
				<circle r="1.16" cy="235.58" cx="482.32" class="st3"></circle>
				<path d="M482.32,237.65c-1.14,0-2.06-0.93-2.06-2.06s0.93-2.06,2.06-2.06s2.06,0.92,2.06,2.06
					S483.45,237.65,482.32,237.65z M482.32,235.32c-0.14,0-0.26,0.12-0.26,0.26c0,0.29,0.52,0.29,0.52,0
					C482.58,235.44,482.46,235.32,482.32,235.32z" class="st3"></path>
			</g>
			<g>
				<circle r="1.13" cy="186.92" cx="472.78" class="st3"></circle>
				<path d="M472.78,188.95c-1.12,0-2.03-0.91-2.03-2.03s0.91-2.03,2.03-2.03s2.03,0.91,2.03,2.03
					S473.9,188.95,472.78,188.95z M472.78,186.7c-0.12,0-0.23,0.1-0.23,0.23c0,0.25,0.45,0.25,0.45,0
					C473.01,186.8,472.91,186.7,472.78,186.7z" class="st3"></path>
			</g>
			<g>
				<circle r="0.64" cy="209.78" cx="480.51" class="st3"></circle>
				<path d="M480.51,211.33c-0.85,0-1.54-0.69-1.54-1.54s0.69-1.54,1.54-1.54s1.54,0.69,1.54,1.54
					S481.36,211.33,480.51,211.33z M480.51,209.53c-0.14,0-0.26,0.12-0.26,0.26c0,0.28,0.51,0.28,0.51,0
					C480.77,209.64,480.65,209.53,480.51,209.53z" class="st3"></path>
			</g>
			<g>
				<circle r="1.36" cy="196.35" cx="508.43" class="st3"></circle>
				<path d="M508.43,198.61c-1.25,0-2.26-1.01-2.26-2.26s1.01-2.26,2.26-2.26s2.26,1.01,2.26,2.26
					S509.68,198.61,508.43,198.61z M508.43,195.9c-0.25,0-0.46,0.21-0.46,0.46c0,0.25,0.21,0.46,0.46,0.46s0.46-0.21,0.46-0.46
					C508.89,196.1,508.69,195.9,508.43,195.9z" class="st3"></path>
			</g>
			<g>
				<circle r="0.68" cy="217.55" cx="507.76" class="st3"></circle>
				<path d="M507.76,219.13c-0.87,0-1.58-0.71-1.58-1.58c0-0.87,0.71-1.58,1.58-1.58c0.87,0,1.58,0.71,1.58,1.58
					C509.33,218.42,508.63,219.13,507.76,219.13z M507.76,217.33c-0.12,0-0.22,0.1-0.22,0.22c0,0.24,0.44,0.24,0.44,0
					C507.98,217.43,507.88,217.33,507.76,217.33z" class="st3"></path>
			</g>
			<g>
				<circle r="1.41" cy="230.68" cx="512.19" class="st3"></circle>
				<path d="M512.19,232.99c-1.27,0-2.31-1.04-2.31-2.31c0-1.27,1.04-2.31,2.31-2.31s2.31,1.04,2.31,2.31
					C514.5,231.95,513.46,232.99,512.19,232.99z M512.19,230.17c-0.28,0-0.51,0.23-0.51,0.51c0,0.28,0.23,0.51,0.51,0.51
					s0.51-0.23,0.51-0.51C512.7,230.4,512.47,230.17,512.19,230.17z" class="st3"></path>
			</g>
			<g>
				<circle r="0.95" cy="247.67" cx="521.39" class="st3"></circle>
				<path d="M521.39,249.52c-1.02,0-1.85-0.83-1.85-1.85s0.83-1.85,1.85-1.85s1.85,0.83,1.85,1.85
					S522.41,249.52,521.39,249.52z M521.39,247.62v0.1l0.05-0.05C521.44,247.65,521.42,247.62,521.39,247.62z" class="st3"></path>
			</g>
			<g>
				<circle r="1.61" cy="260.18" cx="495.16" class="st3"></circle>
				<path d="M495.16,262.69c-1.38,0-2.51-1.13-2.51-2.51s1.13-2.51,2.51-2.51s2.51,1.13,2.51,2.51
					S496.55,262.69,495.16,262.69z M495.16,259.47c-0.39,0-0.71,0.32-0.71,0.71s0.32,0.71,0.71,0.71s0.71-0.32,0.71-0.71
					S495.55,259.47,495.16,259.47z" class="st3"></path>
			</g>
			<g>
				<circle r="1.61" cy="279.99" cx="480.35" class="st3"></circle>
				<path d="M480.35,282.5c-1.38,0-2.51-1.13-2.51-2.51s1.13-2.51,2.51-2.51s2.51,1.13,2.51,2.51
					S481.73,282.5,480.35,282.5z M480.35,279.28c-0.39,0-0.71,0.32-0.71,0.71s0.32,0.71,0.71,0.71s0.71-0.32,0.71-0.71
					S480.74,279.28,480.35,279.28z" class="st3"></path>
			</g>
			<g>
				<circle r="0.89" cy="302.76" cx="465.94" class="st3"></circle>
				<path d="M465.94,304.55c-0.99,0-1.79-0.8-1.79-1.79s0.8-1.79,1.79-1.79s1.79,0.8,1.79,1.79
					S466.93,304.55,465.94,304.55z M465.93,302.76c0,0.01,0,0.01,0.01,0.01l0.89-0.01H465.93z" class="st3"></path>
			</g>
			<g>
				<circle r="1.93" cy="312.18" cx="495.48" class="st3"></circle>
				<path d="M495.48,315.01c-1.56,0-2.83-1.27-2.83-2.83s1.27-2.83,2.83-2.83s2.83,1.27,2.83,2.83
					S497.04,315.01,495.48,315.01z M495.48,311.16c-0.57,0-1.03,0.46-1.03,1.03s0.46,1.03,1.03,1.03s1.03-0.46,1.03-1.03
					S496.04,311.16,495.48,311.16z" class="st3"></path>
			</g>
			<g>
				<circle r="0.65" cy="327.81" cx="522.04" class="st3"></circle>
				<path d="M522.04,329.36c-0.85,0-1.55-0.7-1.55-1.55s0.69-1.55,1.55-1.55s1.55,0.69,1.55,1.55
					S522.89,329.36,522.04,329.36z M522.04,327.56c-0.14,0-0.25,0.11-0.25,0.25c0,0.28,0.5,0.28,0.5,0
					C522.29,327.67,522.18,327.56,522.04,327.56z" class="st3"></path>
			</g>
			<g>
				<circle r="1.84" cy="285.37" cx="514.03" class="st3"></circle>
				<path d="M514.03,288.1c-1.51,0-2.74-1.23-2.74-2.74s1.23-2.74,2.74-2.74s2.74,1.23,2.74,2.74
					S515.53,288.1,514.03,288.1z M514.03,284.43c-0.52,0-0.94,0.42-0.94,0.94s0.42,0.94,0.94,0.94s0.94-0.42,0.94-0.94
					S514.54,284.43,514.03,284.43z" class="st3"></path>
			</g>
			<g>
				<circle r="0.84" cy="321.33" cx="471.21" class="st3"></circle>
				<path d="M471.21,323.07c-0.96,0-1.74-0.78-1.74-1.74s0.78-1.74,1.74-1.74s1.74,0.78,1.74,1.74
					S472.17,323.07,471.21,323.07z M471.21,321.27l-0.06,0.06c0,0.03,0.03,0.06,0.06,0.06V321.27z" class="st3"></path>
			</g>
			<g>
				<circle r="0.75" cy="302.01" cx="528.28" class="st3"></circle>
				<path d="M528.28,303.66c-0.91,0-1.65-0.74-1.65-1.65c0-0.91,0.74-1.65,1.65-1.65c0.91,0,1.65,0.74,1.65,1.65
					C529.93,302.92,529.19,303.66,528.28,303.66z M528.28,301.86c-0.08,0-0.15,0.07-0.15,0.15c0,0.16,0.29,0.16,0.29,0
					C528.42,301.92,528.36,301.86,528.28,301.86z" class="st3"></path>
			</g>
			<g>
				<circle r="0.56" cy="186.36" cx="526.96" class="st3"></circle>
				<path d="M526.96,187.83c-0.81,0-1.46-0.66-1.46-1.46s0.66-1.46,1.46-1.46s1.46,0.66,1.46,1.46
					S527.77,187.83,526.96,187.83z M526.96,186.02c-0.19,0-0.34,0.15-0.34,0.34s0.15,0.34,0.34,0.34s0.34-0.15,0.34-0.34
					S527.15,186.02,526.96,186.02z" class="st3"></path>
			</g>
			<g>
				<circle r="0.53" cy="207.24" cx="523.22" class="st3"></circle>
				<path d="M523.22,208.67c-0.79,0-1.43-0.64-1.43-1.43s0.64-1.43,1.43-1.43s1.43,0.64,1.43,1.43
					S524.01,208.67,523.22,208.67z M523.22,206.87c-0.2,0-0.37,0.17-0.37,0.37s0.17,0.37,0.37,0.37s0.37-0.17,0.37-0.37
					S523.42,206.87,523.22,206.87z" class="st3"></path>
			</g>
			<g>
				<circle r="0.64" cy="213.65" cx="397.77" class="st3"></circle>
				<path d="M397.77,215.2c-0.85,0-1.54-0.69-1.54-1.54s0.69-1.54,1.54-1.54s1.54,0.69,1.54,1.54
					S398.62,215.2,397.77,215.2z M397.77,213.4c-0.14,0-0.26,0.12-0.26,0.26c0,0.28,0.51,0.28,0.51,0
					C398.03,213.51,397.91,213.4,397.77,213.4z" class="st3"></path>
			</g>
			<g>
				<circle r="0.98" cy="196.09" cx="409.35" class="st3"></circle>
				<path d="M409.35,197.97c-1.03,0-1.88-0.84-1.88-1.88s0.84-1.88,1.88-1.88s1.88,0.84,1.88,1.88
					S410.39,197.97,409.35,197.97z M409.35,196.02c-0.04,0-0.08,0.03-0.08,0.08c0,0.08,0.15,0.08,0.15,0
					C409.43,196.05,409.4,196.02,409.35,196.02z" class="st3"></path>
			</g>
			<g>
				<circle r="2.08" cy="197.08" cx="399.85" class="st3"></circle>
				<path d="M399.85,200.06c-1.64,0-2.98-1.34-2.98-2.98s1.34-2.98,2.98-2.98s2.98,1.34,2.98,2.98
					S401.5,200.06,399.85,200.06z M399.85,195.9c-0.65,0-1.18,0.53-1.18,1.18c0,0.65,0.53,1.18,1.18,1.18s1.18-0.53,1.18-1.18
					C401.04,196.43,400.51,195.9,399.85,195.9z" class="st3"></path>
			</g>
			<g>
				<circle r="0.97" cy="186.76" cx="389.54" class="st3"></circle>
				<path d="M389.54,188.63c-1.03,0-1.87-0.84-1.87-1.87s0.84-1.87,1.87-1.87s1.87,0.84,1.87,1.87
					S390.57,188.63,389.54,188.63z M389.54,186.7v0.13l0.07-0.07C389.61,186.73,389.58,186.7,389.54,186.7z" class="st3"></path>
			</g>
			<g>
				<circle r="0.7" cy="229.97" cx="414.23" class="st3"></circle>
				<path d="M414.23,231.58c-0.88,0-1.6-0.72-1.6-1.6s0.72-1.6,1.6-1.6s1.61,0.72,1.61,1.6S415.12,231.58,414.23,231.58
					z M414.23,229.78c-0.11,0-0.2,0.09-0.2,0.2c0,0.22,0.39,0.22,0.39,0C414.43,229.87,414.34,229.78,414.23,229.78z" class="st3"></path>
			</g>
			<g>
				<circle r="1.76" cy="250.38" cx="444.75" class="st3"></circle>
				<path d="M444.75,253.03c-1.46,0-2.66-1.19-2.66-2.66c0-1.46,1.19-2.66,2.66-2.66c1.46,0,2.66,1.19,2.66,2.66
					C447.41,251.84,446.21,253.03,444.75,253.03z M444.75,249.52c-0.47,0-0.85,0.38-0.85,0.85s0.38,0.86,0.85,0.86
					s0.86-0.38,0.86-0.86S445.22,249.52,444.75,249.52z" class="st3"></path>
			</g>
			<g>
				<circle r="0.42" cy="270.91" cx="456.98" class="st3"></circle>
				<path d="M456.98,272.23c-0.73,0-1.32-0.59-1.32-1.32s0.59-1.32,1.32-1.32s1.32,0.59,1.32,1.32
					S457.71,272.23,456.98,272.23z M456.98,270.43c-0.26,0-0.48,0.21-0.48,0.48s0.21,0.48,0.48,0.48s0.48-0.21,0.48-0.48
					S457.25,270.43,456.98,270.43z" class="st3"></path>
			</g>
			<g>
				<circle r="0.52" cy="291.94" cx="488.92" class="st3"></circle>
				<path d="M488.92,293.37c-0.79,0-1.42-0.64-1.42-1.42c0-0.79,0.64-1.42,1.42-1.42s1.42,0.64,1.42,1.42
					C490.35,292.73,489.71,293.37,488.92,293.37z M488.92,291.57c-0.21,0-0.38,0.17-0.38,0.38s0.17,0.38,0.38,0.38
					s0.38-0.17,0.38-0.38S489.13,291.57,488.92,291.57z" class="st3"></path>
			</g>
			<g>
				<circle r="0.79" cy="274.59" cx="388.56" class="st3"></circle>
				<path d="M388.56,276.28c-0.93,0-1.69-0.76-1.69-1.69s0.76-1.69,1.69-1.69s1.69,0.76,1.69,1.69
					S389.49,276.28,388.56,276.28z M388.56,274.48c-0.06,0-0.11,0.05-0.11,0.11c0,0.12,0.22,0.12,0.22,0
					C388.67,274.53,388.62,274.48,388.56,274.48z" class="st3"></path>
			</g>
			<g>
				<circle r="0.44" cy="303.2" cx="390.95" class="st3"></circle>
				<path d="M390.95,304.55c-0.74,0-1.34-0.6-1.34-1.35c0-0.74,0.6-1.34,1.34-1.34c0.74,0,1.35,0.6,1.35,1.34
					C392.3,303.95,391.69,304.55,390.95,304.55z M390.95,302.75c-0.25,0-0.46,0.2-0.46,0.46s0.2,0.46,0.46,0.46s0.46-0.21,0.46-0.46
					S391.2,302.75,390.95,302.75z" class="st3"></path>
			</g>
			<g>
				<circle r="0.81" cy="317.66" cx="515.86" class="st3"></circle>
				<path d="M515.86,319.37c-0.94,0-1.71-0.76-1.71-1.71s0.76-1.71,1.71-1.71s1.71,0.76,1.71,1.71
					S516.8,319.37,515.86,319.37z M515.86,317.57c-0.05,0-0.1,0.04-0.1,0.1c0,0.11,0.19,0.11,0.19,0
					C515.96,317.61,515.91,317.57,515.86,317.57z" class="st3"></path>
			</g>
			<g>
				<circle r="1.07" cy="248.74" cx="475.95" class="st3"></circle>
				<path d="M475.95,250.71c-1.09,0-1.97-0.88-1.97-1.97s0.88-1.97,1.97-1.97s1.97,0.88,1.97,1.97
					S477.03,250.71,475.95,250.71z M475.95,248.57c-0.09,0-0.17,0.08-0.17,0.17c0,0.19,0.34,0.19,0.34,0
					C476.12,248.65,476.04,248.57,475.95,248.57z" class="st3"></path>
			</g>
			<g>
				<circle r="1.05" cy="220.5" cx="468.51" class="st3"></circle>
				<path d="M468.51,222.44c-1.07,0-1.95-0.87-1.95-1.95s0.87-1.95,1.95-1.95s1.95,0.87,1.95,1.95
					S469.59,222.44,468.51,222.44z M468.51,220.35c-0.08,0-0.15,0.07-0.15,0.15c0,0.16,0.29,0.16,0.29,0
					C468.66,220.41,468.6,220.35,468.51,220.35z" class="st3"></path>
			</g>
			<g>
				<circle r="1.19" cy="277.35" cx="419.1" class="st3"></circle>
				<path d="M419.1,279.44c-1.15,0-2.09-0.94-2.09-2.09s0.94-2.09,2.09-2.09s2.09,0.94,2.09,2.09
					S420.26,279.44,419.1,279.44z M419.1,277.06c-0.16,0-0.29,0.13-0.29,0.29c0,0.16,0.13,0.29,0.29,0.29
					c0.16,0,0.29-0.13,0.29-0.29C419.39,277.19,419.26,277.06,419.1,277.06z" class="st3"></path>
			</g>
			<g>
				<circle r="0.59" cy="190.88" cx="490.6" class="st3"></circle>
				<path d="M490.6,192.37c-0.82,0-1.49-0.67-1.49-1.49s0.67-1.49,1.49-1.49s1.49,0.67,1.49,1.49
					S491.43,192.37,490.6,192.37z M490.6,190.57c-0.17,0-0.31,0.14-0.31,0.31s0.14,0.31,0.31,0.31s0.31-0.14,0.31-0.31
					S490.77,190.57,490.6,190.57z" class="st3"></path>
			</g>
			<g>
				<circle r="0.57" cy="241.55" cx="502.98" class="st3"></circle>
				<path d="M502.98,243.03c-0.81,0-1.48-0.66-1.48-1.48c0-0.81,0.66-1.47,1.48-1.47c0.81,0,1.47,0.66,1.47,1.47
					C504.46,242.37,503.79,243.03,502.98,243.03z M502.98,241.23c-0.18,0-0.33,0.15-0.33,0.33c0,0.18,0.15,0.33,0.33,0.33
					c0.18,0,0.33-0.15,0.33-0.33C503.31,241.37,503.16,241.23,502.98,241.23z" class="st3"></path>
			</g>
			<g>
				<circle r="0.56" cy="234.98" cx="458.53" class="st3"></circle>
				<path d="M458.53,236.44c-0.8,0-1.46-0.65-1.46-1.46c0-0.8,0.65-1.46,1.46-1.46c0.8,0,1.46,0.65,1.46,1.46
					C459.98,235.78,459.33,236.44,458.53,236.44z M458.53,234.64c-0.19,0-0.34,0.15-0.34,0.34c0,0.19,0.15,0.34,0.34,0.34
					c0.19,0,0.34-0.15,0.34-0.34C458.87,234.79,458.71,234.64,458.53,234.64z" class="st3"></path>
			</g>
			<g>
				<circle r="0.72" cy="185.72" cx="418.28" class="st3"></circle>
				<path d="M418.28,187.34c-0.9,0-1.62-0.73-1.62-1.62s0.73-1.62,1.62-1.62s1.62,0.73,1.62,1.62
					S419.18,187.34,418.28,187.34z M418.28,185.54c-0.1,0-0.18,0.08-0.18,0.18c0,0.2,0.35,0.2,0.35,0
					C418.46,185.62,418.38,185.54,418.28,185.54z" class="st3"></path>
			</g>
			<g>
				<circle r="0.6" cy="250.41" cx="389.94" class="st3"></circle>
				<path d="M389.94,251.91c-0.83,0-1.5-0.67-1.5-1.5s0.67-1.5,1.5-1.5s1.5,0.67,1.5,1.5S390.77,251.91,389.94,251.91z
					 M389.94,250.11c-0.17,0-0.3,0.14-0.3,0.3c0,0.17,0.14,0.3,0.3,0.3s0.3-0.14,0.3-0.3C390.25,250.24,390.11,250.11,389.94,250.11
					z" class="st3"></path>
			</g>
			<g>
				<circle r="0.4" cy="266.92" cx="481.56" class="st3"></circle>
				<path d="M481.56,268.23c-0.72,0-1.3-0.58-1.3-1.3c0-0.72,0.58-1.3,1.3-1.3s1.3,0.58,1.3,1.3
					C482.86,267.64,482.27,268.23,481.56,268.23z M481.56,266.43c-0.27,0-0.5,0.22-0.5,0.5c0,0.27,0.22,0.5,0.5,0.5
					s0.5-0.22,0.5-0.5C482.05,266.65,481.83,266.43,481.56,266.43z" class="st3"></path>
			</g>
			<g>
				<circle r="0.58" cy="325.65" cx="490.02" class="st3"></circle>
				<path d="M490.02,327.13c-0.82,0-1.48-0.66-1.48-1.48s0.66-1.48,1.48-1.48s1.48,0.66,1.48,1.48
					S490.84,327.13,490.02,327.13z M490.02,325.33c-0.18,0-0.32,0.14-0.32,0.32s0.14,0.32,0.32,0.32s0.32-0.14,0.32-0.32
					S490.2,325.33,490.02,325.33z" class="st3"></path>
			</g>
			<g>
				<circle r="0.58" cy="322.76" cx="420.47" class="st3"></circle>
				<path d="M420.47,324.24c-0.82,0-1.48-0.67-1.48-1.48c0-0.82,0.67-1.48,1.48-1.48s1.48,0.67,1.48,1.48
					C421.96,323.57,421.29,324.24,420.47,324.24z M420.47,322.44c-0.17,0-0.32,0.14-0.32,0.32c0,0.17,0.14,0.32,0.32,0.32
					s0.32-0.14,0.32-0.32C420.79,322.58,420.65,322.44,420.47,322.44z" class="st3"></path>
			</g>
			<g>
				<circle r="0.96" cy="304.61" cx="445.15" class="st3"></circle>
				<path d="M445.15,306.48c-1.03,0-1.87-0.84-1.87-1.86c0-1.03,0.84-1.87,1.87-1.87c1.03,0,1.86,0.84,1.86,1.87
					C447.02,305.64,446.18,306.48,445.15,306.48z M445.15,304.55v0.13l0.06-0.06C445.21,304.58,445.19,304.55,445.15,304.55z" class="st3"></path>
			</g>
			<g>
				<circle r="0.57" cy="320.65" cx="452.01" class="st3"></circle>
				<path d="M452.01,322.11c-0.81,0-1.47-0.66-1.47-1.47c0-0.81,0.66-1.47,1.47-1.47c0.81,0,1.47,0.66,1.47,1.47
					C453.48,321.46,452.82,322.11,452.01,322.11z M452.01,320.31c-0.18,0-0.33,0.15-0.33,0.33s0.15,0.33,0.33,0.33
					s0.33-0.15,0.33-0.33S452.2,320.31,452.01,320.31z" class="st3"></path>
			</g>
			<g>
				<circle r="0.97" cy="307.52" cx="429.15" class="st3"></circle>
				<path d="M429.15,309.39c-1.03,0-1.87-0.84-1.87-1.87s0.84-1.87,1.87-1.87s1.87,0.84,1.87,1.87
					S430.18,309.39,429.15,309.39z M429.15,307.46v0.13l0.07-0.07C429.21,307.48,429.18,307.46,429.15,307.46z" class="st3"></path>
			</g>
			<g>
				<circle r="0.51" cy="222.05" cx="493.04" class="st3"></circle>
				<path d="M493.04,223.46c-0.78,0-1.41-0.63-1.41-1.41c0-0.78,0.63-1.41,1.41-1.41c0.78,0,1.41,0.63,1.41,1.41
					C494.45,222.83,493.82,223.46,493.04,223.46z M493.04,221.66c-0.21,0-0.39,0.18-0.39,0.39c0,0.22,0.18,0.39,0.39,0.39
					c0.22,0,0.39-0.18,0.39-0.39C493.43,221.84,493.26,221.66,493.04,221.66z" class="st3"></path>
			</g>
			<g>
				<circle r="0.39" cy="275.77" cx="498.92" class="st3"></circle>
				<path d="M498.92,277.06c-0.71,0-1.29-0.58-1.29-1.29c0-0.71,0.58-1.29,1.29-1.29s1.29,0.58,1.29,1.29
					C500.21,276.48,499.63,277.06,498.92,277.06z M498.92,275.26c-0.28,0-0.51,0.23-0.51,0.51s0.23,0.51,0.51,0.51
					s0.51-0.23,0.51-0.51S499.2,275.26,498.92,275.26z" class="st3"></path>
			</g>
			<g>
				<circle r="0.66" cy="297.07" cx="508.42" class="st3"></circle>
				<path d="M508.42,298.64c-0.86,0-1.56-0.7-1.56-1.56c0-0.86,0.7-1.56,1.56-1.56c0.86,0,1.56,0.7,1.56,1.56
					C509.98,297.94,509.28,298.64,508.42,298.64z M508.42,296.84c-0.13,0-0.24,0.11-0.24,0.24c0,0.26,0.48,0.26,0.48,0
					C508.66,296.94,508.55,296.84,508.42,296.84z" class="st3"></path>
			</g>
			<g>
				<circle r="1.18" cy="274.98" cx="531.44" class="st3"></circle>
				<path d="M531.44,277.06c-1.15,0-2.08-0.93-2.08-2.08s0.93-2.08,2.08-2.08s2.08,0.93,2.08,2.08
					S532.59,277.06,531.44,277.06z M531.44,274.7c-0.15,0-0.28,0.12-0.28,0.28s0.12,0.28,0.28,0.28s0.28-0.12,0.28-0.28
					S531.59,274.7,531.44,274.7z" class="st3"></path>
			</g>
			<g>
				<circle r="0.58" cy="325.65" cx="392.89" class="st3"></circle>
				<path d="M392.89,327.13c-0.82,0-1.48-0.66-1.48-1.48s0.66-1.48,1.48-1.48s1.48,0.66,1.48,1.48
					S393.71,327.13,392.89,327.13z M392.89,325.33c-0.18,0-0.32,0.14-0.32,0.32s0.14,0.32,0.32,0.32s0.32-0.14,0.32-0.32
					S393.07,325.33,392.89,325.33z" class="st3"></path>
			</g>
			<g>
				<circle r="0.64" cy="213.65" cx="440.75" class="st3"></circle>
				<path d="M440.75,215.2c-0.85,0-1.54-0.69-1.54-1.54s0.69-1.54,1.54-1.54s1.54,0.69,1.54,1.54
					S441.6,215.2,440.75,215.2z M440.75,213.4c-0.14,0-0.26,0.12-0.26,0.26c0,0.28,0.51,0.28,0.51,0
					C441,213.51,440.89,213.4,440.75,213.4z" class="st3"></path>
			</g>
			<g>
				<circle r="0.72" cy="198.44" cx="425.04" class="st3"></circle>
				<path d="M425.04,200.06c-0.9,0-1.62-0.73-1.62-1.62s0.73-1.62,1.62-1.62s1.62,0.73,1.62,1.62
					S425.94,200.06,425.04,200.06z M425.04,198.26c-0.1,0-0.18,0.08-0.18,0.18c0,0.2,0.35,0.2,0.35,0
					C425.22,198.34,425.14,198.26,425.04,198.26z" class="st3"></path>
			</g>
			<g>
				<circle r="1.29" cy="211.72" cx="410.64" class="st3"></circle>
				<path d="M410.64,213.91c-1.21,0-2.19-0.98-2.19-2.19s0.98-2.19,2.19-2.19s2.19,0.98,2.19,2.19
					S411.85,213.91,410.64,213.91z M410.64,211.33c-0.22,0-0.39,0.17-0.39,0.39c0,0.21,0.17,0.39,0.39,0.39
					c0.21,0,0.39-0.17,0.39-0.39C411.03,211.5,410.86,211.33,410.64,211.33z" class="st3"></path>
			</g>
			<g>
				<circle r="1.45" cy="306.07" cx="480.19" class="st3"></circle>
				<path d="M480.19,308.42c-1.3,0-2.35-1.06-2.35-2.35s1.06-2.35,2.35-2.35s2.35,1.06,2.35,2.35
					S481.49,308.42,480.19,308.42z M480.19,305.51c-0.3,0-0.55,0.25-0.55,0.55c0,0.31,0.25,0.55,0.55,0.55
					c0.31,0,0.55-0.25,0.55-0.55C480.75,305.76,480.5,305.51,480.19,305.51z" class="st3"></path>
			</g>
			<g>
				<circle r="1.33" cy="223.38" cx="526.95" class="st3"></circle>
				<path d="M526.95,225.61c-1.23,0-2.23-1-2.23-2.23c0-1.23,1-2.23,2.23-2.23c1.23,0,2.23,1,2.23,2.23
					C529.18,224.61,528.18,225.61,526.95,225.61z M526.95,222.95c-0.24,0-0.43,0.19-0.43,0.43s0.19,0.43,0.43,0.43
					s0.43-0.19,0.43-0.43S527.18,222.95,526.95,222.95z" class="st3"></path>
			</g>
			<g>
				<circle r="1.13" cy="252.13" cx="532.42" class="st3"></circle>
				<path d="M532.42,254.16c-1.12,0-2.03-0.91-2.03-2.03s0.91-2.03,2.03-2.03c1.12,0,2.03,0.91,2.03,2.03
					S533.54,254.16,532.42,254.16z M532.42,251.91c-0.13,0-0.23,0.1-0.23,0.23c0,0.25,0.46,0.25,0.45,0
					C532.65,252.01,532.55,251.91,532.42,251.91z" class="st3"></path>
			</g>
			<g>
				<circle r="1.36" cy="196.35" cx="531.62" class="st3"></circle>
				<path d="M531.62,198.61c-1.25,0-2.26-1.01-2.26-2.26s1.01-2.26,2.26-2.26s2.26,1.01,2.26,2.26
					S532.86,198.61,531.62,198.61z M531.62,195.9c-0.25,0-0.46,0.21-0.46,0.46c0,0.25,0.21,0.46,0.46,0.46s0.46-0.21,0.46-0.46
					C532.08,196.1,531.87,195.9,531.62,195.9z" class="st3"></path>
			</g>
			<g>
				<circle r="1.52" cy="183.47" cx="508.6" class="st3"></circle>
				<path d="M508.6,185.89c-1.34,0-2.42-1.09-2.42-2.42c0-1.34,1.09-2.42,2.42-2.42s2.42,1.09,2.42,2.42
					C511.02,184.81,509.93,185.89,508.6,185.89z M508.6,182.85c-0.34,0-0.62,0.28-0.62,0.62s0.28,0.62,0.62,0.62
					s0.62-0.28,0.62-0.62S508.94,182.85,508.6,182.85z" class="st3"></path>
			</g>
			<g>
				<circle r="1.12" cy="201.26" cx="470.68" class="st3"></circle>
				<path d="M470.68,203.28c-1.12,0-2.02-0.91-2.02-2.02c0-1.12,0.91-2.02,2.02-2.02c1.12,0,2.02,0.91,2.02,2.02
					C472.71,202.37,471.8,203.28,470.68,203.28z M470.68,201.04c-0.12,0-0.22,0.1-0.22,0.22c0,0.25,0.45,0.25,0.45,0
					C470.91,201.13,470.81,201.04,470.68,201.04z" class="st3"></path>
			</g>
			<g>
				<circle r="0.36" cy="185.35" cx="450.44" class="st3"></circle>
				<path d="M450.44,186.62c-0.7,0-1.26-0.57-1.26-1.26s0.57-1.26,1.26-1.26s1.26,0.57,1.26,1.26
					S451.14,186.62,450.44,186.62z M450.44,184.82c-0.3,0-0.54,0.24-0.54,0.54s0.24,0.54,0.54,0.54s0.54-0.24,0.54-0.54
					S450.74,184.82,450.44,184.82z" class="st3"></path>
			</g>
			<g>
				<circle r="0.41" cy="280.4" cx="434.55" class="st3"></circle>
				<path d="M434.55,281.7c-0.72,0-1.31-0.59-1.31-1.31s0.59-1.31,1.31-1.31c0.72,0,1.31,0.59,1.31,1.31
					S435.27,281.7,434.55,281.7z M434.55,279.9c-0.27,0-0.49,0.22-0.49,0.49s0.22,0.49,0.49,0.49s0.49-0.22,0.49-0.49
					S434.82,279.9,434.55,279.9z" class="st3"></path>
			</g>
		</g>
	</g>
	<g>
		<path d="M371.58,192.24c0,0-3.61-13.14-9.3-16.83c0,0-4.43-3.4-4.01,5.85c0,0-4.01-11.56-10.38-10.7
			c0,0-4.33,1.11,1.91,10.94c0,0-7.65-9.77-9.82-7.87c0,0-4.2,3.44,2.82,12.49c0,0-6.54-8.4-8.21-4.44
			c-1.68,3.96,7.23,14.21,10.87,16.83c3.64,2.62,9.5,6.95,9.5,6.95L371.58,192.24z" class="st0"></path>
		<path d="M354.95,206.37c-0.19,0-0.38-0.06-0.53-0.18c0,0-5.85-4.32-9.49-6.94c-3.47-2.5-13.21-13.12-11.18-17.92
			c0.5-1.17,1.32-1.51,1.92-1.59c0.89-0.12,1.9,0.3,2.9,0.96c-2-5.33,0.69-7.64,0.84-7.77c0.26-0.23,0.75-0.51,1.5-0.44
			c1.41,0.13,3.33,1.64,5.09,3.36c-0.56-1.79-0.62-3.25-0.17-4.38c0.56-1.43,1.71-1.76,1.84-1.79c0.03-0.01,0.07-0.01,0.1-0.02
			c4.58-0.61,7.95,4.18,9.78,7.72c0.3-1.65,0.91-2.71,1.86-3.2c1.3-0.68,2.76,0,3.42,0.51c5.85,3.8,9.47,16.76,9.62,17.31
			c0.09,0.35-0.03,0.72-0.31,0.94l-16.63,13.22C355.35,206.3,355.15,206.37,354.95,206.37z M336.01,181.52c-0.04,0-0.08,0-0.11,0.01
			c-0.09,0.01-0.29,0.04-0.49,0.51c-1.38,3.27,6.87,13.09,10.57,15.75c2.97,2.14,7.41,5.4,8.95,6.54l15.62-12.42
			c-0.76-2.52-4.07-12.71-8.76-15.75c-0.29-0.21-1.05-0.65-1.56-0.38c-0.3,0.16-1.27,1.02-1.06,5.44c0.02,0.45-0.29,0.84-0.73,0.92
			c-0.43,0.09-0.87-0.17-1.02-0.59c-0.04-0.11-3.8-10.76-9.33-10.12c-0.09,0.04-0.42,0.22-0.61,0.76c-0.34,0.95-0.38,3.35,3.09,8.81
			c0.26,0.41,0.15,0.94-0.24,1.22c-0.39,0.28-0.93,0.2-1.23-0.18c-2.45-3.13-6.66-7.61-8.35-7.76c-0.05,0-0.13-0.01-0.17,0.02
			c-0.05,0.04-3.37,3.13,2.94,11.26c0.3,0.39,0.23,0.96-0.16,1.26c-0.39,0.3-0.96,0.23-1.26-0.16
			C340.43,184.56,337.41,181.52,336.01,181.52z"></path>
	</g>
	<g>
		<defs>
			<path d="M469.22,155.19c-0.62-0.23-1.7-0.53-3.02-0.36c-2.65,0.34-4.17,2.28-4.49,2.71
				c-0.06-2.21-0.12-4.43-0.18-6.64c-1.63,0.01-3.89-0.17-6.43-0.98c-3.92-1.25-6.58-3.4-8.01-4.75c-1.31,0.72-2.8,1.79-4.12,3.36
				c-4.85,5.77-3.34,13.48-3.06,14.79c0.41,1.53,1.15,3.38,2.48,5.2c4.6,6.27,12.46,6.84,13.96,6.92c0,0.43,0,0.86,0,1.29
				c-2.81,0-5.62,0-8.42,0c0,1.25,0,2.5,0,3.74c0,0-20.13,0.31-50.02,43.96l-24.75-32.25l-17.46,14.79l36.77,42.83
				c0,0,6.57,10.17,19.62-1.75c0,0,6.16-5.03,13.87-17.56l-2.67,44.27l-1.03,19.82l71.7-5.55l0.72,12.22l27.01-4.52l-19.82-95.32
				c0,0-7.81-22.91-29.38-21.37v-4.62c-3.59,0.24-7.18,0.47-10.77,0.71C464.21,169.16,466.72,162.17,469.22,155.19z" id="SVGID_45_"></path>
		</defs>
		<clipPath id="SVGID_4_">
			<use style="overflow:visible;" xlink:href="#SVGID_45_"></use>
		</clipPath>
		<g class="st7">
			<g>
				
					<rect height="136.64" width="198.99" class="st6" transform="matrix(0.3512 -0.9363 0.9363 0.3512 56.7214 484.8126)" y="133.16" x="278.69"></rect>
				<path d="M407.61,319.52l-129.23-48.47l70.37-187.61l129.23,48.47L407.61,319.52z M280.16,270.24l126.64,47.5
					l69.4-185.02l-126.64-47.5L280.16,270.24z" class="st6"></path>
			</g>
			<g>
				<polygon points="487.52,229.68 450.55,196.61 437.92,230.28" class="st6"></polygon>
				<path d="M436.91,230.98l13.34-35.57l39.06,34.93L436.91,230.98z M450.84,197.8l-11.92,31.78l46.81-0.57
					L450.84,197.8z" class="st6"></path>
			</g>
		</g>
	</g>
	<g>
		<circle r="0.7" cy="181.28" cx="451.42" class="st0"></circle>
		<path d="M451.42,182.68c-0.77,0-1.4-0.63-1.4-1.4s0.63-1.4,1.4-1.4s1.4,0.63,1.4,1.4S452.19,182.68,451.42,182.68z
			 M451.42,181.27l0.01,0.01C451.43,181.28,451.43,181.27,451.42,181.27z" class="st0"></path>
	</g>
	<g>
		<circle r="0.6" cy="185.07" cx="443.31" class="st0"></circle>
		<path d="M443.31,186.36c-0.71,0-1.29-0.58-1.29-1.29s0.58-1.29,1.29-1.29s1.29,0.58,1.29,1.29
			S444.02,186.36,443.31,186.36z M443.31,184.97c-0.05,0-0.1,0.04-0.1,0.1c0,0.11,0.19,0.11,0.19,0
			C443.41,185.02,443.36,184.97,443.31,184.97z" class="st0"></path>
	</g>
	<g>
		<circle r="0.99" cy="206.45" cx="447.68" class="st0"></circle>
		<path d="M447.68,208.13c-0.93,0-1.68-0.75-1.68-1.68s0.75-1.68,1.68-1.68c0.93,0,1.68,0.75,1.68,1.68
			S448.61,208.13,447.68,208.13z M447.68,206.16c-0.16,0-0.29,0.13-0.29,0.29s0.13,0.29,0.29,0.29s0.29-0.13,0.29-0.29
			S447.85,206.16,447.68,206.16z" class="st0"></path>
	</g>
	<g>
		<circle r="2.18" cy="224.27" cx="463.72" class="st0"></circle>
		<path d="M463.72,227.15c-1.59,0-2.88-1.29-2.88-2.88c0-1.58,1.29-2.88,2.88-2.88s2.88,1.29,2.88,2.88
			C466.6,225.86,465.31,227.15,463.72,227.15z M463.72,222.78c-0.82,0-1.49,0.67-1.49,1.49c0,0.82,0.67,1.49,1.49,1.49
			c0.82,0,1.49-0.67,1.49-1.49C465.21,223.45,464.54,222.78,463.72,222.78z" class="st0"></path>
	</g>
	<g>
		<circle r="1.23" cy="224.49" cx="434.42" class="st0"></circle>
		<path d="M434.42,226.42c-1.06,0-1.92-0.86-1.92-1.92c0-1.06,0.86-1.92,1.92-1.92c1.06,0,1.92,0.86,1.92,1.92
			C436.35,225.55,435.48,226.42,434.42,226.42z M434.42,223.95c-0.3,0-0.54,0.24-0.54,0.54c0,0.3,0.24,0.54,0.54,0.54
			c0.3,0,0.54-0.24,0.54-0.54C434.96,224.19,434.72,223.95,434.42,223.95z" class="st0"></path>
	</g>
	<g>
		<circle r="0.54" cy="244.09" cx="429.19" class="st0"></circle>
		<path d="M429.19,245.33c-0.68,0-1.23-0.55-1.23-1.23c0-0.68,0.55-1.23,1.23-1.23s1.23,0.55,1.23,1.23
			C430.42,244.77,429.87,245.33,429.19,245.33z M429.19,243.94c-0.08,0-0.15,0.07-0.15,0.15c0,0.17,0.3,0.17,0.3,0
			C429.34,244.01,429.27,243.94,429.19,243.94z" class="st0"></path>
	</g>
	<g>
		<circle r="0.69" cy="229.57" cx="409.86" class="st0"></circle>
		<path d="M409.86,230.96c-0.76,0-1.38-0.62-1.38-1.38c0-0.76,0.62-1.39,1.38-1.39s1.38,0.62,1.38,1.39
			C411.25,230.34,410.63,230.96,409.86,230.96z M409.86,229.57L409.86,229.57l0.69,0L409.86,229.57z" class="st0"></path>
	</g>
	<g>
		<circle r="0.54" cy="244.09" cx="401.92" class="st0"></circle>
		<path d="M401.92,245.33c-0.68,0-1.23-0.55-1.23-1.23c0-0.68,0.55-1.23,1.23-1.23s1.23,0.55,1.23,1.23
			C403.16,244.77,402.6,245.33,401.92,245.33z M401.92,243.94c-0.08,0-0.15,0.07-0.15,0.15c0,0.17,0.3,0.17,0.3,0
			C402.07,244.01,402.01,243.94,401.92,243.94z" class="st0"></path>
	</g>
	<g>
		<circle r="0.44" cy="224.71" cx="386.67" class="st0"></circle>
		<path d="M386.67,225.84c-0.62,0-1.13-0.51-1.13-1.13c0-0.62,0.51-1.13,1.13-1.13s1.13,0.51,1.13,1.13
			C387.8,225.33,387.29,225.84,386.67,225.84z M386.67,224.46c-0.14,0-0.25,0.11-0.25,0.25c0,0.28,0.51,0.28,0.51,0
			C386.93,224.57,386.81,224.46,386.67,224.46z" class="st0"></path>
	</g>
	<g>
		<circle r="1.07" cy="208.51" cx="381.03" class="st0"></circle>
		<path d="M381.03,210.27c-0.97,0-1.76-0.79-1.76-1.76s0.79-1.76,1.76-1.76s1.76,0.79,1.76,1.76
			S382,210.27,381.03,210.27z M381.03,208.13c-0.21,0-0.38,0.17-0.38,0.38s0.17,0.38,0.38,0.38s0.38-0.17,0.38-0.38
			S381.23,208.13,381.03,208.13z" class="st0"></path>
	</g>
	<g>
		<circle r="0.53" cy="209.04" cx="363.18" class="st0"></circle>
		<path d="M363.18,210.27c-0.68,0-1.23-0.55-1.23-1.23s0.55-1.23,1.23-1.23s1.23,0.55,1.23,1.23
			S363.86,210.27,363.18,210.27z M363.18,208.88c-0.09,0-0.16,0.07-0.16,0.16c0,0.17,0.32,0.17,0.32,0
			C363.34,208.96,363.27,208.88,363.18,208.88z" class="st0"></path>
	</g>
	<g>
		<circle r="1.35" cy="237.11" cx="387.59" class="st0"></circle>
		<path d="M387.59,239.16c-1.13,0-2.04-0.92-2.04-2.04s0.92-2.04,2.04-2.04s2.04,0.92,2.04,2.04
			S388.71,239.16,387.59,239.16z M387.59,236.45c-0.36,0-0.66,0.3-0.66,0.66s0.3,0.66,0.66,0.66s0.66-0.3,0.66-0.66
			S387.95,236.45,387.59,236.45z" class="st0"></path>
	</g>
	<g>
		<circle r="1.03" cy="207.48" cx="420.8" class="st0"></circle>
		<path d="M420.8,209.2c-0.95,0-1.72-0.77-1.72-1.72s0.77-1.72,1.72-1.72c0.95,0,1.72,0.77,1.72,1.72
			S421.75,209.2,420.8,209.2z M420.8,207.15c-0.19,0-0.34,0.15-0.34,0.33s0.15,0.33,0.34,0.33c0.18,0,0.33-0.15,0.33-0.33
			S420.99,207.15,420.8,207.15z" class="st0"></path>
	</g>
	<g>
		<circle r="0.97" cy="194.75" cx="430.7" class="st0"></circle>
		<path d="M430.7,196.42c-0.92,0-1.67-0.75-1.67-1.67s0.75-1.67,1.67-1.67s1.67,0.75,1.67,1.67
			S431.62,196.42,430.7,196.42z M430.7,194.47c-0.16,0-0.28,0.13-0.28,0.28s0.13,0.28,0.28,0.28s0.28-0.13,0.28-0.28
			S430.86,194.47,430.7,194.47z" class="st0"></path>
	</g>
	<g>
		<circle r="0.38" cy="215.37" cx="455.64" class="st0"></circle>
		<path d="M455.64,216.44c-0.59,0-1.07-0.48-1.07-1.07s0.48-1.07,1.07-1.07s1.07,0.48,1.07,1.07
			S456.23,216.44,455.64,216.44z M455.64,215.05c-0.17,0-0.31,0.14-0.31,0.31c0,0.17,0.14,0.31,0.31,0.31s0.31-0.14,0.31-0.31
			C455.96,215.19,455.82,215.05,455.64,215.05z" class="st0"></path>
	</g>
	<g>
		<circle r="0.03" cy="228.91" cx="481.91" class="st0"></circle>
		<polygon points="481.91,229.63 481.22,229.63 481.19,228.22 482.6,228.19 482.63,229.6" class="st0"></polygon>
	</g>
	<rect height="1.8" width="153.16" transform="matrix(0.1605 -0.987 0.987 0.1605 -14.715 722.512)" y="369.01" x="340.82"></rect>
	<rect height="158.05" width="1.8" transform="matrix(0.9998 -0.0204 0.0204 0.9998 -7.404 10.0824)" y="289.65" x="490.58"></rect>
	<g>
		<path d="M499.48,302c0,0-2.4,11.54,0.7,16.78c0,0,2.2,4.48,5.6-2.75c0,0-1.43,10.51,4.05,12.57c0,0,3.94,1,2.88-9.14
			c0,0,2.22,10.7,4.74,10.18c0,0,4.77-0.83,2.77-10.71c0,0,1.87,9.18,4.83,6.88c2.95-2.3-0.09-13.9-1.97-17.45
			c-1.88-3.55-4.85-9.34-4.85-9.34L499.48,302z" class="st0"></path>
		<path d="M517.27,330.65c-0.32,0-0.72-0.08-1.15-0.37c-1-0.66-1.88-2.36-2.58-4.23c-0.3,1.28-0.81,2.22-1.51,2.83
			c-1.13,0.98-2.31,0.71-2.44,0.68c-0.04-0.01-0.07-0.02-0.11-0.03c-3.86-1.45-4.75-6.27-4.85-9.77c-0.83,0.92-1.68,1.37-2.57,1.38
			c-0.01,0-0.02,0-0.02,0c-1.42,0-2.39-1.21-2.75-1.93c-3.22-5.44-0.88-16.94-0.78-17.42c0.08-0.4,0.41-0.71,0.82-0.78l18.75-2.97
			c0.42-0.07,0.84,0.14,1.04,0.53c0,0,2.97,5.78,4.85,9.33c1.81,3.42,5.38,15.83,1.7,18.7c-0.94,0.73-1.79,0.64-2.34,0.44
			c-0.68-0.25-1.27-0.85-1.77-1.61c-0.2,1.27-0.6,2.34-1.2,3.21c-1.14,1.67-2.57,1.96-2.73,1.99
			C517.52,330.63,517.4,330.65,517.27,330.65z M512.71,318.47c0.46,0,0.88,0.32,0.97,0.79c0.98,4.7,2.69,9.18,3.61,9.4
			c1.27-0.29,3.36-2.65,1.96-9.53c0,0,0,0,0,0c-0.11-0.54,0.24-1.06,0.78-1.17c0.54-0.1,1.06,0.24,1.17,0.78
			c0.58,2.82,1.85,6.08,2.82,6.44c0.06,0.02,0.17,0.06,0.43-0.14c1.37-1.07,1.04-10-2.24-16.2c-1.5-2.84-3.7-7.1-4.53-8.71
			l-17.35,2.75c-0.44,2.49-1.75,11.25,0.71,15.4c0.12,0.24,0.55,0.88,1,0.88c0,0,0,0,0.01,0c0.2,0,1.26-0.19,2.83-3.55
			c0.21-0.44,0.71-0.67,1.18-0.53c0.47,0.14,0.77,0.6,0.7,1.09c-0.36,2.69-0.47,9.95,3.33,11.48c0.06,0.01,0.37-0.01,0.67-0.3
			c0.48-0.45,1.54-2.12,0.95-7.78c-0.05-0.53,0.31-1,0.84-1.09C512.6,318.47,512.66,318.47,512.71,318.47z"></path>
	</g>
</g>
</svg>
