<svg xml:space="preserve" style="enable-background:new 0 0 800 600;" viewBox="0 0 800 600" y="0px" x="0px" xmlns:xlink="http://www.w3.org/1999/xlink" xmlns="http://www.w3.org/2000/svg" id="图层_1" version="1.1">
<style type="text/css">
	.st0{fill:#FFFFFF;}
	.st1{fill:none;stroke:#FFFFFF;stroke-width:1.8;stroke-miterlimit:10;}
	.st2{fill:none;}
	.st3{fill:#34B16B;}
	.st4{fill:none;stroke:#000000;stroke-width:1.8;stroke-miterlimit:10;}
	.st5{clip-path:url(#SVGID_2_);}
	.st6{fill:#040000;}
	.st7{clip-path:url(#SVGID_4_);}
	.st8{fill:none;stroke:#000000;stroke-width:1.8;stroke-linecap:round;stroke-linejoin:round;stroke-miterlimit:10;}
	.st9{fill:#34B16B;stroke:#34B16B;stroke-width:0.3899;stroke-miterlimit:10;}
	.st10{fill:#34B16B;stroke:#34B16B;stroke-width:0.6633;stroke-miterlimit:10;}
	.st11{fill:#34B16B;stroke:#34B16B;stroke-width:0.5489;stroke-miterlimit:10;}
	.st12{fill:#34B16B;stroke:#34B16B;stroke-width:0.7222;stroke-miterlimit:10;}
	.st13{fill:#34B16B;stroke:#34B16B;stroke-width:0.5742;stroke-miterlimit:10;}
	.st14{fill:#34B16B;stroke:#34B16B;stroke-width:1.1505;stroke-miterlimit:10;}
	.st15{clip-path:url(#SVGID_6_);}
	.st16{clip-path:url(#SVGID_8_);}
	.st17{clip-path:url(#SVGID_10_);}
	.st18{clip-path:url(#SVGID_12_);}
	.st19{clip-path:url(#SVGID_14_);}
	.st20{fill:none;stroke:#34B16B;stroke-width:1.8;stroke-miterlimit:10;}
	.st21{clip-path:url(#SVGID_16_);fill:none;stroke:#34B16B;stroke-width:0.6412;stroke-miterlimit:10;}
	.st22{fill:none;stroke:#000000;stroke-linecap:round;stroke-linejoin:round;stroke-miterlimit:10;}
	.st23{fill:#34B16B;stroke:#34B16B;stroke-linecap:round;stroke-linejoin:round;stroke-miterlimit:10;}
	.st24{fill:none;stroke:#000000;stroke-width:0.6455;stroke-linecap:round;stroke-linejoin:round;stroke-miterlimit:10;}
	.st25{clip-path:url(#SVGID_18_);}
	.st26{fill:#318C56;}
	.st27{opacity:0.67;fill:#37A867;}
	.st28{fill:#37A867;}
	.st29{clip-path:url(#SVGID_20_);fill:#040000;}
	.st30{fill:none;stroke:#318C56;stroke-miterlimit:10;}
	.st31{clip-path:url(#SVGID_22_);}
	.st32{clip-path:url(#SVGID_24_);}
	.st33{fill:#42B36F;}
	.st34{clip-path:url(#SVGID_26_);fill:#FFFFFF;}
	.st35{clip-path:url(#SVGID_28_);fill:#FFFFFF;}
	.st36{fill:#6CB988;}
	.st37{clip-path:url(#SVGID_30_);}
	.st38{clip-path:url(#SVGID_32_);fill:#34B16B;}
	.st39{fill:#FFFFFF;stroke:#000000;stroke-width:1.7686;stroke-miterlimit:10;}
	.st40{fill:#FFFFFF;stroke:#000000;stroke-width:1.8;stroke-miterlimit:10;}
	.st41{stroke:#000000;stroke-width:1.8;stroke-miterlimit:10;}
	.st42{clip-path:url(#SVGID_34_);}
	.st43{fill:#34B16B;stroke:#34B16B;stroke-width:0.4604;stroke-miterlimit:10;}
	.st44{fill:#34B16B;stroke:#34B16B;stroke-width:0.7833;stroke-miterlimit:10;}
	.st45{fill:#34B16B;stroke:#34B16B;stroke-width:0.6482;stroke-miterlimit:10;}
	.st46{fill:#34B16B;stroke:#34B16B;stroke-width:0.8528;stroke-miterlimit:10;}
	.st47{fill:#34B16B;stroke:#34B16B;stroke-width:0.6781;stroke-miterlimit:10;}
	.st48{fill:#34B16B;stroke:#34B16B;stroke-width:1.3586;stroke-miterlimit:10;}
	.st49{fill:#34B16B;stroke:#34B16B;stroke-width:1.8;stroke-linecap:round;stroke-linejoin:round;stroke-miterlimit:10;}
	.st50{fill:none;stroke:#FFFFFF;stroke-width:1.8;stroke-linecap:round;stroke-linejoin:round;stroke-miterlimit:10;}
	.st51{fill:none;stroke:#FFFFFF;stroke-linecap:round;stroke-linejoin:round;stroke-miterlimit:10;}
	.st52{stroke:#000000;stroke-width:1.9321;stroke-linecap:round;stroke-linejoin:round;stroke-miterlimit:10;}
	.st53{fill:none;stroke:#FFFFFF;stroke-width:5.124;stroke-linecap:round;stroke-linejoin:round;stroke-miterlimit:10;}
	.st54{fill:none;stroke:#040000;stroke-width:1.8;stroke-linecap:round;stroke-linejoin:round;stroke-miterlimit:10;}
	.st55{fill:none;stroke:#FFFFFF;stroke-width:11.4876;stroke-linecap:round;stroke-linejoin:round;stroke-miterlimit:10;}
	.st56{stroke:#000000;stroke-width:1.8158;stroke-linecap:round;stroke-linejoin:round;stroke-miterlimit:10;}
	.st57{clip-path:url(#SVGID_36_);}
	.st58{fill:#FFFFFF;stroke:#FFFFFF;stroke-width:0.2961;stroke-linecap:round;stroke-linejoin:round;stroke-miterlimit:10;}
	.st59{fill:none;stroke:#000000;stroke-width:2.1144;stroke-linecap:round;stroke-linejoin:round;stroke-miterlimit:10;}
	.st60{clip-path:url(#SVGID_38_);}
	.st61{clip-path:url(#SVGID_40_);}
	.st62{clip-path:url(#SVGID_42_);}
	.st63{fill:#221714;}
	.st64{fill:#358C59;}
	.st65{fill:#4FB377;}
	.st66{clip-path:url(#SVGID_44_);}
	.st67{clip-path:url(#SVGID_46_);}
	.st68{clip-path:url(#SVGID_48_);fill:#FFFFFF;}
	.st69{clip-path:url(#SVGID_50_);fill:#FFFFFF;}
</style>
<g>
	<g>
		<path d="M403.08,124.83c2.17-2.96,4.26-4.73,4.87-5.22c7.92-6.45,17.27-6.45,18.66-6.41
			c2.01,0.05,12.6,0.54,20.86,9.3c7.72,8.18,8.07,17.92,8.1,20.13l-7.92,8.41l-47.21-6.77c0.04-0.35,0.07-1-0.28-1.66
			c-0.55-1.04-1.8-1.64-3.19-1.55C397.32,137.59,398.47,131.11,403.08,124.83z" class="st0"></path>
		<path d="M447.99,152l-48.55-6.96l0.11-0.88c0.04-0.29,0.03-0.72-0.18-1.12c-0.38-0.72-1.3-1.14-2.33-1.07l-1.06,0.07l0.11-1.06
			c0.61-6.15,2.78-11.91,6.28-16.68v0c2.13-2.9,4.23-4.73,5.03-5.39c8.07-6.57,17.47-6.65,19.25-6.61c3,0.08,13.4,1.01,21.49,9.58
			c7.41,7.85,8.3,17.12,8.34,20.74l0,0.36L447.99,152z M401.34,143.49l45.97,6.59l7.35-7.81c-0.09-3.63-1.11-12.02-7.85-19.16
			c-7.61-8.06-17.41-8.94-20.23-9.01c-1.03-0.03-10.33-0.09-18.07,6.21c-0.75,0.61-2.71,2.33-4.72,5.06
			c-3.12,4.26-5.13,9.37-5.83,14.84c1.31,0.2,2.42,0.92,2.98,1.99C401.17,142.59,401.3,143.03,401.34,143.49z"></path>
	</g>
	<g>
		<path d="M450.03,164.93c0,0,4.54,3.03,8.12-2.02c3.59-5.04,5.04-12.66,0.5-18.26c-4.54-5.6-8.29,2.18-8.29,2.18" class="st0"></path>
		<path d="M453.14,166.74c-1.49,0-2.8-0.52-3.62-1.06l1-1.5l-0.5,0.75l0.5-0.75c0.39,0.26,3.93,2.39,6.89-1.79
			c3.36-4.73,4.83-11.87,0.54-17.18c-0.99-1.22-1.99-1.8-2.92-1.68c-1.8,0.21-3.4,2.73-3.86,3.69l-1.62-0.78
			c0.08-0.18,2.12-4.33,5.27-4.7c1.61-0.18,3.12,0.6,4.53,2.33c4.89,6.04,3.29,14.07-0.47,19.35
			C457.1,165.95,454.98,166.74,453.14,166.74z"></path>
	</g>
	<g>
		<rect height="475.76" width="475.76" class="st2" y="65.23" x="176.44"></rect>
		<path d="M262.51,149.46c-0.12,0-0.24-0.04-0.33-0.12l-15.71-13.82c-0.21-0.18-0.23-0.5-0.04-0.71c0.18-0.21,0.5-0.23,0.71-0.05
			l15.71,13.82c0.21,0.18,0.23,0.5,0.04,0.71C262.79,149.4,262.65,149.46,262.51,149.46z"></path>
		<path d="M300.42,219.55c-0.15,0-0.31-0.07-0.41-0.21c-0.16-0.22-0.11-0.54,0.11-0.7l9.48-6.84c0.22-0.16,0.54-0.11,0.7,0.11
			c0.16,0.22,0.11,0.54-0.11,0.7l-9.48,6.84C300.62,219.52,300.52,219.55,300.42,219.55z"></path>
		<path d="M213.07,174.15c-0.01,0-0.01,0-0.02,0c-0.28-0.01-0.49-0.24-0.48-0.52l0.49-11.67c0.01-0.28,0.24-0.5,0.52-0.48
			c0.28,0.01,0.49,0.24,0.48,0.52l-0.49,11.67C213.55,173.94,213.33,174.15,213.07,174.15z"></path>
		<path d="M180.87,236.57c-0.28,0-0.5-0.22-0.5-0.5l-0.04-11.65c0-0.28,0.22-0.5,0.5-0.5c0,0,0,0,0,0c0.28,0,0.5,0.22,0.5,0.5
			l0.04,11.65C181.37,236.34,181.14,236.57,180.87,236.57C180.87,236.57,180.87,236.57,180.87,236.57z"></path>
		<path d="M203.72,434.17c-0.18,0-0.36-0.1-0.45-0.28c-0.12-0.25-0.03-0.55,0.22-0.67l9.16-4.61c0.24-0.13,0.55-0.03,0.67,0.22
			c0.12,0.25,0.03,0.55-0.22,0.67l-9.16,4.61C203.87,434.15,203.79,434.17,203.72,434.17z"></path>
		<path d="M317.21,334.41c-0.24,0-0.45-0.17-0.49-0.41l-2.31-13c-0.05-0.27,0.13-0.53,0.4-0.58c0.28-0.05,0.53,0.13,0.58,0.4
			l2.31,13c0.05,0.27-0.13,0.53-0.4,0.58C317.27,334.41,317.24,334.41,317.21,334.41z"></path>
		<path d="M187.58,509.2c-0.1,0-0.2-0.03-0.28-0.09c-0.23-0.16-0.29-0.47-0.13-0.69l7.85-11.5c0.16-0.23,0.47-0.29,0.7-0.13
			c0.23,0.16,0.29,0.47,0.13,0.69l-7.85,11.5C187.9,509.12,187.74,509.2,187.58,509.2z"></path>
		<path d="M415.87,501.41c-0.16,0-0.32-0.08-0.41-0.22l-8.69-12.84c-0.16-0.23-0.09-0.54,0.13-0.69c0.23-0.16,0.54-0.09,0.69,0.13
			l8.69,12.84c0.16,0.23,0.09,0.54-0.13,0.69C416.06,501.39,415.96,501.41,415.87,501.41z"></path>
		<path d="M557.78,456.49c-0.14,0-0.28-0.06-0.38-0.17c-0.18-0.21-0.16-0.52,0.05-0.71l9.53-8.31c0.21-0.18,0.52-0.16,0.71,0.05
			c0.18,0.21,0.16,0.52-0.05,0.71l-9.53,8.31C558.01,456.45,557.89,456.49,557.78,456.49z"></path>
		<path d="M562.1,273.21c-0.14,0-0.29-0.06-0.39-0.18l-8.64-10.57c-0.17-0.21-0.14-0.53,0.07-0.7c0.21-0.17,0.53-0.14,0.7,0.07
			l8.64,10.57c0.17,0.21,0.14,0.53-0.07,0.7C562.32,273.18,562.21,273.21,562.1,273.21z"></path>
		<path d="M618.4,276.77c-0.07,0-0.14-0.01-0.2-0.04c-0.25-0.11-0.37-0.41-0.25-0.66l5.7-12.94c0.11-0.25,0.41-0.37,0.66-0.26
			c0.25,0.11,0.37,0.41,0.25,0.66l-5.7,12.94C618.77,276.66,618.59,276.77,618.4,276.77z"></path>
		<path d="M300.23,427.9c-0.1,0-0.21-0.03-0.29-0.1c-0.22-0.16-0.27-0.48-0.11-0.7l9.85-13.47c0.16-0.22,0.48-0.27,0.7-0.11
			c0.22,0.16,0.27,0.48,0.11,0.7l-9.85,13.47C300.54,427.82,300.39,427.9,300.23,427.9z"></path>
		<path d="M534.82,121.23c-0.12,0-0.23-0.04-0.32-0.12c-0.21-0.18-0.24-0.5-0.06-0.71l10.54-12.34c0.18-0.21,0.5-0.23,0.7-0.06
			c0.21,0.18,0.24,0.5,0.06,0.71l-10.54,12.34C535.1,121.18,534.96,121.23,534.82,121.23z"></path>
		<path d="M438.46,100.02L438.46,100.02L411.52,100c-0.28,0-0.5-0.22-0.5-0.5c0-0.28,0.22-0.5,0.5-0.5l0,0l26.94,0.02
			c0.28,0,0.5,0.22,0.5,0.5C438.96,99.8,438.73,100.02,438.46,100.02z"></path>
		<path d="M626.43,424.22c-0.09,0-0.18-0.02-0.26-0.07c-0.24-0.14-0.31-0.45-0.17-0.69l6.96-11.59c0.14-0.24,0.45-0.31,0.69-0.17
			c0.24,0.14,0.31,0.45,0.17,0.69l-6.96,11.59C626.77,424.13,626.6,424.22,626.43,424.22z"></path>
		<g>
			
				<rect height="10.86" width="10.86" class="st3" transform="matrix(-0.9982 -0.0598 0.0598 -0.9982 439.6651 501.1586)" y="238.57" x="221.9"></rect>
			<path d="M232.42,250.24c-0.01,0-0.02,0-0.03,0l-10.84-0.65c-0.13-0.01-0.26-0.07-0.34-0.17
				c-0.09-0.1-0.13-0.23-0.12-0.36l0.65-10.84c0.01-0.13,0.07-0.26,0.17-0.34s0.22-0.13,0.36-0.12l10.84,0.65
				c0.28,0.02,0.49,0.25,0.47,0.53l-0.65,10.84C232.91,250.04,232.69,250.24,232.42,250.24z M222.12,248.63l9.84,0.59l0.59-9.84
				l-9.84-0.59L222.12,248.63z" class="st3"></path>
		</g>
		<g>
			
				<rect height="10.64" width="10.64" class="st3" transform="matrix(-0.9814 -0.1917 0.1917 -0.9814 1176.8015 352.2404)" y="113.87" x="600.12"></rect>
			<path d="M609.64,125.93c-0.03,0-0.06,0-0.1-0.01l-10.44-2.04c-0.13-0.03-0.25-0.1-0.32-0.21s-0.1-0.25-0.08-0.38
				l2.04-10.44c0.05-0.27,0.31-0.45,0.59-0.4l10.44,2.04c0.13,0.03,0.25,0.1,0.32,0.21s0.1,0.25,0.08,0.38l-2.04,10.44
				C610.09,125.76,609.88,125.93,609.64,125.93z M599.79,122.99l9.46,1.85l1.85-9.46l-9.46-1.85L599.79,122.99z" class="st3"></path>
		</g>
		<path d="M598.71,334.68c-0.05,0-0.11-0.01-0.16-0.03l-15.59-5.4c-0.12-0.04-0.23-0.13-0.29-0.25c-0.06-0.12-0.07-0.26-0.02-0.38
			l5.4-15.59c0.04-0.12,0.13-0.23,0.25-0.29c0.12-0.06,0.26-0.07,0.38-0.02l15.59,5.4c0.26,0.09,0.4,0.38,0.31,0.64l-5.4,15.59
			C599.11,334.55,598.91,334.68,598.71,334.68z M583.75,328.47l14.65,5.07l5.07-14.65l-14.65-5.07L583.75,328.47z"></path>
		<g>
			<circle r="6.73" cy="496.76" cx="287.46" class="st3"></circle>
			<path d="M287.46,503.99c-0.01,0-0.02,0-0.03,0c-1.93-0.01-3.74-0.76-5.11-2.13s-2.11-3.19-2.1-5.12l0.5,0l-0.5,0
				c0.01-1.93,0.76-3.75,2.14-5.11c1.36-1.36,3.17-2.1,5.09-2.1c0.01,0,0.02,0,0.03,0c1.93,0.01,3.75,0.76,5.11,2.14
				c1.36,1.37,2.11,3.19,2.1,5.12c-0.01,1.93-0.76,3.74-2.13,5.11C291.19,503.24,289.38,503.99,287.46,503.99z M287.46,490.52
				c-1.66,0-3.21,0.64-4.39,1.81c-1.18,1.17-1.83,2.74-1.84,4.4c-0.01,1.66,0.64,3.23,1.81,4.41c1.17,1.18,2.74,1.83,4.4,1.84
				c1.64-0.01,3.23-0.64,4.41-1.81c1.18-1.17,1.83-2.74,1.84-4.4c0.01-1.66-0.64-3.23-1.81-4.41c-1.17-1.18-2.74-1.83-4.4-1.84
				C287.47,490.52,287.47,490.52,287.46,490.52z" class="st3"></path>
		</g>
		<path d="M247.66,436.67c-1.48,0-2.94-0.4-4.25-1.17c-1.92-1.14-3.29-2.96-3.85-5.12c-0.56-2.17-0.23-4.42,0.9-6.34
			c1.14-1.92,2.96-3.29,5.12-3.85c4.48-1.14,9.04,1.56,10.19,6.03c0.56,2.17,0.23,4.42-0.9,6.34c-1.14,1.92-2.96,3.29-5.12,3.84
			C249.06,436.58,248.35,436.67,247.66,436.67z M247.67,420.93c-0.6,0-1.22,0.08-1.83,0.23c-3.94,1.01-6.32,5.03-5.31,8.97l0,0
			c0.49,1.91,1.69,3.51,3.39,4.51c1.7,1,3.68,1.29,5.58,0.8c3.94-1.01,6.32-5.03,5.31-8.97
			C253.96,423.14,250.95,420.93,247.67,420.93z"></path>
		<g>
			<circle r="3.47" cy="99.39" cx="316.06" class="st3"></circle>
			<path d="M316.06,103.36c-1.31,0-2.6-0.65-3.36-1.84c-0.57-0.9-0.76-1.96-0.53-3c0.23-1.04,0.85-1.92,1.74-2.49
				c0.89-0.57,1.96-0.76,2.99-0.53c1.04,0.23,1.92,0.85,2.49,1.74c0.57,0.89,0.76,1.96,0.53,3c-0.23,1.04-0.85,1.92-1.74,2.49
				C317.53,103.16,316.79,103.36,316.06,103.36z M316.05,96.41c-0.56,0-1.11,0.16-1.59,0.47l0,0c-0.67,0.43-1.13,1.09-1.3,1.87
				c-0.17,0.78-0.03,1.57,0.4,2.24c0.88,1.38,2.72,1.79,4.11,0.91c0.67-0.43,1.13-1.09,1.3-1.87c0.17-0.78,0.03-1.57-0.4-2.24
				c-0.43-0.67-1.09-1.13-1.86-1.3C316.48,96.43,316.27,96.41,316.05,96.41z M314.19,96.46L314.19,96.46L314.19,96.46z" class="st3"></path>
		</g>
		<g>
			<circle r="6.08" cy="210.52" cx="633.04" class="st3"></circle>
			<path d="M633.05,217.1c-0.18,0-0.36-0.01-0.53-0.02c-1.75-0.14-3.34-0.95-4.48-2.29c-1.14-1.34-1.69-3.04-1.55-4.79
				c0.14-1.75,0.95-3.34,2.29-4.48c1.34-1.14,3.04-1.69,4.79-1.55c1.75,0.14,3.34,0.95,4.48,2.29c1.14,1.34,1.69,3.04,1.55,4.79
				c-0.14,1.75-0.95,3.34-2.29,4.48C636.11,216.55,634.62,217.1,633.05,217.1z M633.03,204.94c-1.32,0-2.59,0.47-3.61,1.33
				c-1.13,0.97-1.82,2.32-1.94,3.8c-0.12,1.49,0.35,2.93,1.32,4.06l0,0c0.97,1.13,2.32,1.82,3.8,1.94c1.49,0.12,2.93-0.35,4.06-1.31
				c1.13-0.97,1.82-2.32,1.94-3.8c0.12-1.49-0.35-2.93-1.32-4.06c-0.97-1.13-2.32-1.82-3.8-1.94
				C633.34,204.95,633.18,204.94,633.03,204.94z" class="st3"></path>
		</g>
		<path d="M206.22,355.45c-8.97,0-15.39-6.46-15.67-6.75c-0.19-0.2-0.19-0.51,0.01-0.71c0.2-0.19,0.52-0.19,0.71,0.01
			c0.07,0.07,7.33,7.36,16.8,6.36c5.05-0.53,7.41-4.65,10.15-9.42c2.33-4.06,4.97-8.65,9.77-11.41c10.27-5.89,25.84,2.55,26.5,2.91
			c0.24,0.13,0.33,0.44,0.2,0.68c-0.13,0.24-0.44,0.33-0.68,0.2c-0.16-0.09-15.73-8.53-25.52-2.92c-4.57,2.62-7.03,6.9-9.4,11.04
			c-2.76,4.8-5.36,9.33-10.91,9.91C207.51,355.42,206.85,355.45,206.22,355.45z"></path>
		<path d="M571.24,187.37c-7.6,0-13.48-4.43-13.77-4.65c-0.22-0.17-0.26-0.48-0.09-0.7c0.17-0.22,0.48-0.26,0.7-0.09
			c0.08,0.06,8.29,6.24,17.54,3.91c4.92-1.24,6.68-5.66,8.71-10.76c1.73-4.35,3.69-9.27,8.06-12.68c9.33-7.29,25.94-1.14,26.64-0.88
			c0.26,0.1,0.39,0.39,0.29,0.64c-0.1,0.26-0.38,0.39-0.64,0.29c-0.17-0.06-16.79-6.21-25.67,0.73c-4.15,3.24-5.98,7.83-7.74,12.26
			c-2.05,5.14-3.98,9.99-9.39,11.36C574.27,187.2,572.72,187.37,571.24,187.37z"></path>
		<g>
			<circle r="5.3" cy="391.05" cx="585.15" class="st3"></circle>
			<path d="M585.15,396.85c-1.53,0-3.05-0.6-4.19-1.79c-2.21-2.31-2.13-5.99,0.18-8.2c2.31-2.21,5.99-2.13,8.2,0.18
				c1.07,1.12,1.64,2.59,1.61,4.14c-0.03,1.55-0.67,2.99-1.79,4.06C588.04,396.31,586.6,396.85,585.15,396.85z M585.15,386.25
				c-1.2,0-2.39,0.44-3.32,1.33c-1.91,1.83-1.98,4.88-0.15,6.79c1.83,1.91,4.88,1.98,6.79,0.15c0.93-0.89,1.45-2.08,1.48-3.36
				c0.03-1.28-0.45-2.5-1.33-3.43C587.68,386.74,586.41,386.25,585.15,386.25z" class="st3"></path>
		</g>
		<path d="M616.02,489.12c-0.14,0-0.27-0.05-0.37-0.16c-0.19-0.2-0.17-0.52,0.03-0.71l8.64-7.87c0.2-0.19,0.52-0.17,0.71,0.03
			c0.19,0.2,0.17,0.52-0.03,0.71l-8.64,7.87C616.26,489.08,616.14,489.12,616.02,489.12z"></path>
		<path d="M505.12,505.92c-0.56,0-1.15-0.05-1.75-0.16c-9.88-1.72-14.92-10.83-15.13-11.22c-0.13-0.24-0.04-0.55,0.2-0.68
			c0.24-0.13,0.55-0.04,0.68,0.2c0.05,0.09,5.03,9.08,14.42,10.71c5,0.87,8.4-2.44,12.34-6.28c3.35-3.26,7.15-6.96,12.52-8.3
			c11.49-2.85,24.15,9.53,24.69,10.05c0.2,0.19,0.2,0.51,0,0.71c-0.19,0.2-0.51,0.2-0.71,0c-0.13-0.13-12.79-12.52-23.74-9.79
			c-5.11,1.27-8.65,4.71-12.07,8.04C513.06,502.65,509.7,505.92,505.12,505.92z"></path>
		<path d="M180.85,98.97c-0.21,0-0.4-0.13-0.47-0.33c-0.09-0.26,0.04-0.55,0.3-0.64l10.05-3.56c0.26-0.09,0.54,0.04,0.64,0.3
			c0.09,0.26-0.04,0.55-0.3,0.64l-10.05,3.56C180.96,98.96,180.91,98.97,180.85,98.97z"></path>
		<path d="M440.22,349.73c-0.12,0-0.25-0.05-0.35-0.14l-12.05-11.54c-0.2-0.19-0.21-0.51-0.02-0.71c0.19-0.2,0.51-0.21,0.71-0.02
			l12.05,11.54c0.2,0.19,0.21,0.51,0.02,0.71C440.48,349.68,440.35,349.73,440.22,349.73z"></path>
	</g>
	<path d="M404.78,173.74c-2-4.27-3.23-8.73-3.65-13.28c-1.5-16.35,7.9-28.89,12.02-33.52l1.35,1.2
		c-3.96,4.46-13.01,16.51-11.57,32.16c0.4,4.33,1.57,8.6,3.48,12.68L404.78,173.74z"></path>
	<g>
		<path d="M416.79,125.3c2.26-1.53,5.48-3.24,9.7-3.22c5.64,0.02,9.68,3.12,11.1,4.33c0,0,9.15,7.05,12.22,19.64
			c0.2,0.84,0.38,1.7,0.53,2.59c2.92,17.79-7.55,30.9-9.12,32.75v20.29c9,2.95,18,5.89,26.99,8.84
			c-1.91,5.22-9.18,23.15-27.49,32.24c-0.87,0.43-13.07,6.34-25.03,5.02c-2.67-0.3-8.37-0.93-14.06-4.77
			c-1.04-0.7-1.85-1.36-2.4-1.83c-2.77-1.85-6.01-4.47-9.04-8.12c-8.3-10.02-9.59-21.3-9.84-26.2c8.78-1.84,17.55-3.68,26.33-5.52
			l0.74-23.29c-1.29-3.33-2.58-6.67-3.87-10" class="st0"></path>
		<path d="M419.24,248.86c-1.21,0-2.43-0.06-3.65-0.2c-2.79-0.31-8.59-0.95-14.46-4.92c-0.84-0.57-1.66-1.19-2.44-1.86
			c-3.48-2.32-6.57-5.11-9.19-8.27c-7.64-9.23-9.68-19.63-10.04-26.73l-0.04-0.77l26.39-5.53l0.71-22.4l-3.8-9.83l1.68-0.65
			l3.94,10.17l-0.77,24.18l-26.26,5.5c0.46,6.79,2.53,16.37,9.59,24.9c2.52,3.04,5.49,5.71,8.84,7.95l0.09,0.06
			c0.74,0.63,1.52,1.23,2.32,1.77c5.5,3.72,11.01,4.33,13.65,4.62c11.82,1.3,24.02-4.67,24.53-4.93
			c16.32-8.1,23.95-23.67,26.72-30.87l-26.72-8.75v-21.28l0.21-0.25c1.22-1.43,11.79-14.51,8.92-32.02
			c-0.14-0.84-0.31-1.69-0.51-2.52c-2.96-12.14-11.8-19.07-11.89-19.14c-1.83-1.56-5.59-4.12-10.56-4.14c-0.02,0-0.04,0-0.06,0
			c-4.13,0-7.19,1.75-9.13,3.07l-1.01-1.49c3.37-2.29,6.66-3.4,10.21-3.38c5.54,0.02,9.7,2.85,11.68,4.54
			c0.35,0.27,9.41,7.36,12.51,20.11c0.21,0.88,0.4,1.78,0.54,2.66c2.85,17.38-6.63,30.22-9.11,33.22v19.31l27.26,8.92l-0.32,0.88
			c-3.15,8.61-10.97,24.32-27.94,32.74C440.64,243.8,430.3,248.86,419.24,248.86z"></path>
	</g>
	<path d="M399.6,165.3c-1.96,0-4.23-0.87-5.97-3.76c-3.34-5.56-4.32-13.69,1.02-19.33c1.53-1.62,3.12-2.28,4.7-1.98
		c3.11,0.61,4.82,4.91,4.89,5.09l-1.68,0.66c-0.39-0.99-1.79-3.63-3.56-3.98c-0.94-0.18-1.96,0.31-3.04,1.45
		c-4.69,4.96-3.78,12.19-0.79,17.17c2.64,4.39,6.32,2.54,6.74,2.31l0.88,1.57C402.02,164.93,400.88,165.3,399.6,165.3z"></path>
	<path d="M397.87,141.12l-1.8-0.11c0.01-0.24,0.39-5.87,3.56-12.21l1.61,0.81C398.24,135.6,397.87,141.07,397.87,141.12z"></path>
	<path d="M423.93,238.92c-4.6,0-9.85-0.75-15.56-2.83c-20.13-7.34-23.44-29.54-23.48-29.77l1.78-0.25
		c0.03,0.21,3.21,21.36,22.31,28.32c19.17,6.99,33.32-1.92,33.46-2.01l0.09-0.05c0.14-0.07,14.03-7.06,18.69-23.65l1.73,0.49
		c-4.79,17.07-18.5,24.22-19.58,24.76C442.62,234.41,435.21,238.92,423.93,238.92z"></path>
	<circle r="3.96" cy="150.55" cx="501.82" class="st3"></circle>
	<circle r="6.82" cy="210.07" cx="505.78" class="st3"></circle>
	<path d="M535.18,177.08c-1.37,0-2.6-0.94-2.92-2.33c-0.37-1.61,0.63-3.23,2.25-3.6c5.17-1.19,11.79-8.45,13.42-17.36
		c1.01-5.52,0.39-13.31-8.29-19.09c-4.87-3.24-9.63-4.36-14.16-3.31c-8.61,2-13.99,11.09-14.04,11.18c-0.83,1.43-2.67,1.92-4.1,1.09
		c-1.43-0.83-1.92-2.66-1.1-4.09c0.27-0.46,6.68-11.4,17.84-14.01c6.22-1.46,12.57-0.06,18.89,4.15
		c8.76,5.84,12.72,15.01,10.86,25.16c-1.92,10.53-9.82,20.25-17.97,22.13C535.63,177.05,535.41,177.08,535.18,177.08z" class="st3"></path>
	<path d="M514.43,196.41c-0.14,0-0.28-0.01-0.42-0.03c-1.64-0.23-2.79-1.74-2.56-3.39
		c1.21-8.71,12.67-13.82,13.97-14.37c1.52-0.65,3.29,0.06,3.94,1.59c0.65,1.52-0.06,3.28-1.58,3.93c-2.49,1.07-9.75,5.14-10.38,9.68
		C517.19,195.32,515.9,196.41,514.43,196.41z" class="st3"></path>
	<path d="M302.51,278.01c0,0,9.24-5.92,29.14-42.87c19.9-36.95,26.29-49.74,26.29-49.74l-38.85-14.45
		c0,0-48.8,57.32-49.98,104.7c0,0-4.74,42.87,49.27,31.5c0,0,17.29-3.79,35.29-14.69L320.99,460.4l182.63-6.4l-5.92-80.77
		c0,0,19.3,4.24,31.97-7.3c11.08-10.09,10.81-25.78,10.2-40.55c-1.84-44.47-26.71-96.19-70.65-115.52c-0.88-0.39-1.6-0.69-2.02-0.86
		c-0.96,3.54-5.49,18.8-20.98,28.48c-13.19,8.24-26.32,7.44-30.48,7.02c0,0-31.03-2.08-34.22-38.88c-3.7,0.86-7.6,2.01-11.63,3.52
		c-17.8,6.66-30.3,17.48-38.22,26" class="st3"></path>
	<path d="M490.99,315.84c-0.43,0-0.83-0.26-0.99-0.69l-22.2-58.98c-0.21-0.55,0.07-1.16,0.62-1.36c0.55-0.21,1.16,0.07,1.36,0.62
		l22.2,58.98c0.21,0.55-0.07,1.16-0.62,1.36C491.24,315.82,491.12,315.84,490.99,315.84z"></path>
	<path d="M409.14,173.67c-1.71,0-3.42-0.17-5.09-0.51c-11.68-2.39-20.16-12.79-20.16-24.74c0-13.92,11.33-25.25,25.25-25.25
		c2.71,0,5.38,0.43,7.93,1.27l0,0c10.36,3.42,17.32,13.06,17.32,23.98C434.39,162.35,423.06,173.67,409.14,173.67z M409.14,124.97
		c-12.93,0-23.45,10.52-23.45,23.45c0,11.09,7.87,20.75,18.72,22.97c1.54,0.32,3.14,0.48,4.73,0.48c12.93,0,23.45-10.52,23.45-23.45
		c0-10.14-6.46-19.09-16.08-22.27l0,0C414.14,125.37,411.66,124.97,409.14,124.97z"></path>
	<path d="M409,170.37c-12.1,0-21.95-9.85-21.95-21.95c0-8.66,5.11-16.53,13.03-20.06c2.81-1.25,5.81-1.89,8.92-1.89
		c12.1,0,21.95,9.85,21.95,21.95C430.95,160.53,421.1,170.37,409,170.37z M409,128.28c-2.85,0-5.61,0.58-8.19,1.73l0,0
		c-7.26,3.24-11.96,10.46-11.96,18.41c0,11.11,9.04,20.15,20.15,20.15s20.15-9.04,20.15-20.15
		C429.15,137.31,420.11,128.28,409,128.28z M400.45,129.19L400.45,129.19L400.45,129.19z"></path>
	<g>
		
			<rect height="6.46" width="25.17" class="st0" transform="matrix(0.9681 -0.2506 0.2506 0.9681 -27.7735 98.5237)" y="155.08" x="360.35"></rect>
		<path d="M361.56,165.49c-0.4,0-0.77-0.27-0.87-0.67l-1.62-6.25c-0.06-0.23-0.03-0.48,0.1-0.68s0.32-0.35,0.55-0.41l24.37-6.31
			c0.48-0.12,0.97,0.16,1.1,0.65l1.62,6.25c0.06,0.23,0.03,0.48-0.1,0.68s-0.32,0.35-0.55,0.41l-24.37,6.31
			C361.72,165.48,361.64,165.49,361.56,165.49z M361.04,158.98l1.17,4.51l22.63-5.86l-1.17-4.51L361.04,158.98z"></path>
	</g>
	<g>
		<defs>
			<path d="M304.47,275.75c0,0,9.24-5.92,29.14-42.87c19.9-36.95,26.29-49.74,26.29-49.74l-38.85-14.45
				c0,0-48.8,57.32-49.98,104.7c0,0-4.74,42.87,49.27,31.5c0,0,17.29-3.79,35.29-14.69c-11.55,56.73-23.09,113.47-34.64,170.2
				c19.75,0.49,40.08,0.62,60.97,0.31c42.86-0.64,83.49-3.06,121.66-6.7c-1.32-27.68-2.65-55.36-3.97-83.04
				c4.81,0.76,21.23,2.79,31.97-7.3c2.04-1.92,9.93-9.96,8.24-38.29c-0.79-13.35-3.37-56.83-38.87-92.1
				c-11.7-11.63-23.86-19.26-33.81-24.28c-0.91,3.35-5.04,17.09-19.03,26.22c-13.36,8.72-26.88,7.47-30.48,7.02
				c0,0-31.03-2.08-34.22-38.88c-6.96,1.52-17.16,4.58-28.08,11.19c-10.16,6.15-17.26,13.14-21.78,18.33" id="SVGID_41_"></path>
		</defs>
		<clipPath id="SVGID_2_">
			<use style="overflow:visible;" xlink:href="#SVGID_41_"></use>
		</clipPath>
		<g class="st5">
			<path d="M673.07,628.55H170.22V110.1h502.85V628.55z M172.02,626.75h499.25V111.9H172.02V626.75z" class="st0"></path>
			<rect height="516.65" width="1.8" class="st0" y="111" x="216.34"></rect>
			<rect height="516.65" width="1.8" class="st0" y="111" x="352.3"></rect>
			<rect height="516.65" width="1.8" class="st0" y="111" x="305.65"></rect>
			<rect height="516.65" width="1.8" class="st0" y="111" x="260.6"></rect>
			<rect height="516.65" width="1.8" class="st0" y="111" x="399.08"></rect>
			<rect height="516.65" width="1.8" class="st0" y="111" x="536.04"></rect>
			<rect height="516.65" width="1.8" class="st0" y="111" x="489.39"></rect>
			<rect height="516.65" width="1.8" class="st0" y="111" x="444.34"></rect>
			<rect height="516.65" width="1.8" class="st0" y="111" x="581.96"></rect>
			<rect height="516.65" width="1.8" class="st0" y="111" x="627.21"></rect>
			<rect height="1.8" width="501.05" class="st0" y="152.66" x="171.12"></rect>
			<rect height="1.8" width="501.05" class="st0" y="288.62" x="171.12"></rect>
			<rect height="1.8" width="501.05" class="st0" y="241.97" x="171.12"></rect>
			<rect height="1.8" width="501.05" class="st0" y="196.92" x="171.12"></rect>
			<rect height="1.8" width="501.05" class="st0" y="335.4" x="171.12"></rect>
			<rect height="1.8" width="501.05" class="st0" y="472.36" x="171.12"></rect>
			<rect height="1.8" width="501.05" class="st0" y="425.71" x="171.12"></rect>
			<rect height="1.8" width="501.05" class="st0" y="380.66" x="171.12"></rect>
			<rect height="1.8" width="501.05" class="st0" y="518.28" x="171.12"></rect>
			<rect height="1.8" width="501.05" class="st0" y="568.98" x="171.12"></rect>
		</g>
	</g>
	<path d="M433.97,313.31c-0.19,0-0.38-0.06-0.54-0.18c-0.09-0.07-8.82-6.68-14.2-10.65c-5.46-4.03-19.32-20.01-16.4-26.7
		c0.68-1.56,1.77-2,2.55-2.09c1.59-0.19,3.52,0.92,5.34,2.41c-3.93-8.87,0.43-12.52,0.66-12.71c0.5-0.43,1.18-0.62,1.94-0.54
		c2.39,0.25,5.88,3.42,8.79,6.55c-1.4-3.52-1.69-6.29-0.88-8.28c0.64-1.57,1.87-2.25,2.5-2.4c0.03-0.01,0.07-0.01,0.1-0.02
		c7.26-0.89,12.35,7.61,14.8,12.91c0.33-3.18,1.27-5.13,2.83-5.92c2.21-1.12,4.57,0.7,4.67,0.78c8.66,5.77,13.84,25.24,14.05,26.06
		c0.09,0.35-0.04,0.72-0.32,0.94l-25.35,19.66C434.36,313.25,434.17,313.31,433.97,313.31z M405.79,275.46c-0.07,0-0.13,0-0.19,0.01
		c-0.3,0.04-0.75,0.18-1.12,1.03c-0.98,2.24,0.82,6.85,4.94,12.64c3.75,5.27,8.41,10.06,10.88,11.88
		c4.61,3.4,11.66,8.73,13.67,10.25l24.32-18.87c-0.92-3.26-5.86-19.59-13.21-24.49c-0.07-0.05-1.62-1.23-2.8-0.63
		c-0.83,0.42-2.18,2.1-1.96,8.61c0.02,0.45-0.3,0.84-0.74,0.92c-0.44,0.08-0.87-0.18-1.01-0.6c-0.05-0.16-5.38-15.79-13.69-15.79
		c-0.25,0-0.5,0.01-0.75,0.04c-0.15,0.06-0.86,0.36-1.25,1.39c-0.58,1.49-0.75,5.27,4.52,13.81c0.25,0.41,0.14,0.94-0.26,1.21
		c-0.39,0.27-0.93,0.19-1.23-0.2c-3.44-4.5-9.94-11.75-12.78-12.05c-0.35-0.03-0.51,0.06-0.6,0.14c-0.07,0.06-5.53,4.87,4.15,17.67
		c0,0,0,0,0,0c0,0,0,0,0,0c0.3,0.4,0.22,0.96-0.17,1.26c-0.4,0.3-0.96,0.22-1.26-0.17C412.84,280.36,408.22,275.46,405.79,275.46z"></path>
	<path d="M497.69,375.13c-0.09,0-0.18-0.01-0.27-0.04c-33.53-10.63-64.34-52.49-64.65-52.91c-0.02-0.03-0.05-0.07-0.06-0.1
		l-3.32-6.16c-0.21-0.39-0.11-0.87,0.24-1.14l29.13-22.74c0.16-0.12,0.35-0.19,0.55-0.19c9.26,0,25.07,15.47,25.74,16.13
		c19.59,17,23.98,31.75,24.16,32.37c0.14,0.48-0.14,0.97-0.62,1.11c-0.48,0.14-0.98-0.14-1.11-0.62
		c-0.04-0.15-4.46-14.9-23.65-31.55c-0.2-0.19-15.62-15.29-24.22-15.64l-28.28,22.08l2.93,5.43c0.58,0.79,8.12,10.94,19.38,22.16
		c10.73,10.7,27.13,24.6,44.33,30.05c0.47,0.15,0.74,0.66,0.59,1.13C498.43,374.89,498.07,375.13,497.69,375.13z"></path>
	<circle r="1.98" cy="164.39" cx="397.6"></circle>
	<circle r="1.98" cy="165.83" cx="454.21" class="st3"></circle>
	<path d="M423.31,221.82c-0.01,0-0.02,0-0.02,0c-0.3-0.01-0.58-0.14-0.78-0.37l-16.63-19.43c-0.38-0.44-0.33-1.11,0.12-1.49
		c0.44-0.38,1.11-0.33,1.49,0.12l15.87,18.53l17.1-18.23c0.4-0.43,1.07-0.45,1.5-0.05c0.43,0.4,0.45,1.07,0.05,1.5l-17.91,19.09
		C423.88,221.7,423.6,221.82,423.31,221.82z"></path>
	<circle r="1.98" cy="222.1" cx="423.19" class="st3"></circle>
	<g>
		<path d="M321.1,169.18c2.24-3.2,5.25-6.81,9.26-10.28c10.92-9.44,22.92-12.32,29.35-13.33
			c0.62-0.05,3.89-0.26,4.69,1.25c0.82,1.55-1.03,4.77-5.21,7.44c0,0-6,4.29-8.31,4.99c0,0,15.6-5.31,15.18-0.69
			s-9.18,8.31-9.18,8.31c1.48-0.55,11.43-4.14,13.76-1.18c0.12,0.15,0.33,0.43,0.39,0.84c0.45,3.02-8.14,6.35-9.3,6.8
			c0,0,12.85-3.92,8.96,1.85c-3.88,5.77-13.12,10.16-13.12,10.16l-37.86-14.09L321.1,169.18z" class="st0"></path>
		<path d="M357.58,186.22c-0.1,0-0.21-0.02-0.31-0.06l-37.86-14.09c-0.25-0.09-0.45-0.3-0.53-0.55c-0.08-0.25-0.04-0.53,0.1-0.76
			l1.38-2.08c0-0.01,0.01-0.01,0.01-0.02c2.71-3.88,5.88-7.39,9.41-10.44c10.34-8.94,21.91-12.29,29.79-13.54
			c1.73-0.14,4.65-0.09,5.6,1.71c1.16,2.2-1.16,5.81-5.51,8.59c-0.08,0.06-0.96,0.69-2.15,1.49c3.41-0.73,7.05-1.11,8.58,0.09
			c0.63,0.5,0.93,1.21,0.85,2.05c-0.19,2.1-1.8,3.97-3.67,5.47c3.3-0.66,6.66-0.74,8.06,1.05c0.13,0.16,0.47,0.6,0.57,1.26
			c0.26,1.73-1.41,3.38-3.62,4.77c1.61-0.06,3.01,0.18,3.65,1.04c0.63,0.86,0.46,2.02-0.51,3.46c-3.97,5.91-13.08,10.28-13.47,10.47
			C357.83,186.2,357.7,186.22,357.58,186.22z M321.06,170.82l36.46,13.57c1.66-0.83,9.14-4.79,12.44-9.7
			c0.63-0.94,0.61-1.36,0.55-1.44c-0.53-0.72-4.6-0.28-8.53,0.92c-0.45,0.14-0.93-0.11-1.09-0.56c-0.15-0.45,0.08-0.94,0.52-1.1
			c5.27-2.01,8.95-4.47,8.75-5.85c-0.03-0.2-0.14-0.34-0.21-0.43c-1.37-1.74-7.4-0.52-12.77,1.46c-0.44,0.16-0.94-0.06-1.12-0.5
			c-0.18-0.44,0.04-0.95,0.47-1.13c2.3-0.97,8.35-4.23,8.65-7.58c0.03-0.29-0.05-0.41-0.19-0.52c-1.56-1.22-8.78,0.43-13.58,2.03
			c-0.1,0.04-0.2,0.07-0.29,0.1c-0.46,0.14-0.94-0.12-1.09-0.57c-0.15-0.46,0.1-0.94,0.55-1.1c0.08-0.03,0.17-0.06,0.28-0.09
			c1.93-0.72,6.24-3.66,7.8-4.78c4.14-2.64,5.39-5.47,4.95-6.32c-0.32-0.61-1.91-0.94-3.84-0.78c-7.59,1.2-18.82,4.46-28.85,13.12
			c-3.42,2.95-6.49,6.36-9.11,10.11L321.06,170.82z"></path>
	</g>
	<g>
		<path d="M402.15,163.81c0,0-4.76,2.67-7.94-2.64c-3.19-5.3-4.05-13.01,0.91-18.25c4.96-5.24,8.1,2.82,8.1,2.82
			s2.79-12.19,10.07-17.8c0,0,8.55,1.73,13.38,9.38c0.89,1.41,3.32,5.33,3.19,10.68c-0.22,9.55-8.37,15.43-10.85,17.02
			c-6.42,4.12-13.02,4.01-15.69,3.81c-0.18-0.63-0.36-1.28-0.53-1.97C402.52,165.8,402.31,164.78,402.15,163.81z"></path>
		<path d="M405.27,169.8c-0.76,0-1.44-0.03-2.03-0.07c-0.37-0.03-0.69-0.29-0.8-0.65c-0.19-0.64-0.37-1.31-0.54-2
			c-0.16-0.66-0.31-1.34-0.44-2.01c-2.18,0.69-5.63,0.56-8.03-3.44c-3.34-5.56-4.32-13.69,1.02-19.33c1.54-1.62,3.11-2.29,4.7-1.98
			c1.69,0.33,2.96,1.74,3.79,3c1.18-3.86,4.17-11.77,9.79-16.1c0.21-0.16,0.47-0.22,0.73-0.17c0.36,0.07,8.99,1.9,13.96,9.78
			c0.86,1.36,3.46,5.48,3.33,11.18c-0.23,9.92-8.68,16.1-11.26,17.76C414.29,169.1,408.89,169.8,405.27,169.8z M404,167.97
			c3.29,0.16,9.04-0.2,14.51-3.71c2.4-1.54,10.23-7.25,10.44-16.28c0.12-5.15-2.27-8.94-3.05-10.18c-3.99-6.32-10.71-8.44-12.4-8.88
			c-6.69,5.46-9.38,16.91-9.41,17.02c-0.09,0.38-0.42,0.67-0.81,0.7c-0.4,0.03-0.76-0.2-0.9-0.57c-0.39-0.99-1.79-3.63-3.57-3.98
			c-0.94-0.18-1.96,0.31-3.04,1.45c-4.69,4.96-3.78,12.19-0.79,17.17c2.64,4.39,6.32,2.54,6.74,2.31c0.25-0.14,0.56-0.15,0.83-0.02
			c0.26,0.13,0.45,0.37,0.5,0.66c0.17,1,0.38,2.01,0.62,3C403.76,167.1,403.88,167.54,404,167.97z"></path>
	</g>
</g>
</svg>
